<?xml version="1.0" encoding="utf-8"?>
<!-- Generator: Adobe Illustrator 21.0.2, SVG Export Plug-In . SVG Version: 6.00 Build 0)  -->
<svg version="1.1" id="Layer_2" xmlns="http://www.w3.org/2000/svg" xmlns:xlink="http://www.w3.org/1999/xlink" x="0px" y="0px"
	 width="250px" height="200px" viewBox="0 0 250 200" style="enable-background:new 0 0 250 200;" xml:space="preserve">
<style type="text/css">
	.st0{fill:#DCE0DF;}
	.st1{fill:#646464;}
	.st2{fill:#160D37;}
	.st3{fill:#999999;}
	.st4{fill:#B00D23;}
	.st5{fill:#FFFFFF;}
	.st6{fill:#160D37;stroke:#FFFFFF;stroke-width:2;stroke-miterlimit:10;}
</style>
<g>
	<g>
		<rect x="12.76" y="90.81" class="st0" width="121.48" height="68.84"/>
		<path class="st1" d="M136.27,163.69H10.74c-1.12,0-2.02-0.91-2.02-2.02c0-1.12,0.91-2.03,2.02-2.03h125.53
			c1.12,0,2.03,0.91,2.03,2.03C138.29,162.79,137.39,163.69,136.27,163.69L136.27,163.69z M136.27,163.69"/>
		<path class="st2" d="M101.85,190.01h-8.33l-1.8-14.42c-0.13-1.01-0.99-1.77-2.01-1.77H57.31c-1.02,0-1.88,0.76-2.01,1.77
			l-1.8,14.42h-8.34c-1.12,0-2.02,0.91-2.02,2.03c0,1.12,0.91,2.02,2.02,2.02h56.69c1.12,0,2.03-0.91,2.03-2.02
			C103.87,190.92,102.97,190.01,101.85,190.01L101.85,190.01z M101.85,190.01"/>
		<path class="st2" d="M130.19,177.86H16.81c-4.47,0-8.1-3.63-8.1-8.1v-10.12h129.58v10.12
			C138.29,174.24,134.66,177.86,130.19,177.86L130.19,177.86z M130.19,177.86"/>
		<path class="st2" d="M130.19,86.76H16.81c-4.47,0-8.1,3.63-8.1,8.1v68.84h129.58V94.86C138.29,90.39,134.66,86.76,130.19,86.76
			L130.19,86.76z M12.76,159.64V94.86c0-2.23,1.82-4.05,4.05-4.05h113.38c2.23,0,4.05,1.82,4.05,4.05v64.79H12.76z M12.76,159.64"/>
		<g>
			<path class="st3" d="M127.72,91.96H19.25c-2.98,0-5.42,1.1-5.42,2.44v8.55h119.32v-8.55C133.14,93.06,130.7,91.96,127.72,91.96z"
				/>
			<circle class="st0" cx="39.36" cy="97.57" r="2.76"/>
			<circle class="st0" cx="30.57" cy="97.57" r="2.76"/>
			<circle class="st0" cx="21.78" cy="97.57" r="2.76"/>
		</g>
	</g>
	<g>
		<g>
			<circle class="st4" cx="134.3" cy="82.21" r="72.27"/>
		</g>
		<g>
			<path class="st5" d="M163.2,114.05h-44.64c-2.47,0-4.47-2-4.47-4.47c0-2.46,2-4.46,4.47-4.46h44.64c2.47,0,4.46,2,4.46,4.46
				C167.66,112.06,165.66,114.05,163.2,114.05L163.2,114.05z M163.2,114.05"/>
			<path class="st5" d="M172.13,109.59c0,4.93-4,8.93-8.93,8.93c-4.93,0-8.93-4-8.93-8.93c0-4.93,4-8.92,8.93-8.92
				C168.13,100.66,172.13,104.66,172.13,109.59L172.13,109.59z M172.13,109.59"/>
			<path class="st5" d="M167.98,60.5l-62.49-4.46c-1.42-0.09-2.86,0.51-3.78,1.64c-0.92,1.13-1.23,2.64-0.83,4.04l8.93,31.25
				c0.55,1.92,2.3,3.24,4.29,3.24h44.64c7.39,0,13.39-6.01,13.39-13.39V64.95C172.13,62.61,170.32,60.67,167.98,60.5L167.98,60.5z
				 M167.98,60.5"/>
			<path class="st5" d="M172.13,56.03h-65.38l-1.78-5.78c-0.02-0.08-0.08-0.13-0.11-0.2c-0.11-0.3-0.28-0.55-0.44-0.82
				c-0.15-0.23-0.27-0.47-0.45-0.67c-0.19-0.2-0.42-0.35-0.65-0.52c-0.24-0.18-0.46-0.36-0.73-0.49c-0.23-0.11-0.47-0.15-0.72-0.22
				c-0.32-0.09-0.63-0.18-0.97-0.2c-0.07,0-0.14-0.04-0.21-0.04h-8.93c-2.47,0-4.46,2-4.46,4.46c0,2.47,2,4.47,4.46,4.47h5.63
				l16.88,54.88c0.59,1.92,2.36,3.16,4.27,3.16c0.43,0,0.87-0.07,1.31-0.2c2.36-0.72,3.68-3.22,2.96-5.58l-13.33-43.33h62.63
				c2.47,0,4.46-2,4.46-4.46C176.59,58.02,174.59,56.03,172.13,56.03L172.13,56.03z M172.13,56.03"/>
			<path class="st5" d="M123.02,109.59c0,4.93-4,8.93-8.93,8.93c-4.93,0-8.92-4-8.92-8.93c0-4.93,4-8.92,8.92-8.92
				C119.02,100.66,123.02,104.66,123.02,109.59L123.02,109.59z M123.02,109.59"/>
		</g>
		<polygon class="st6" points="185.93,87.11 198.93,133.16 210.85,121.78 231.7,142.63 241.29,131.63 221.14,111.49 232.52,100.11 
					"/>
	</g>
</g>
<g>
</g>
<g>
</g>
<g>
</g>
<g>
</g>
<g>
</g>
<g>
</g>
<g>
</g>
<g>
</g>
<g>
</g>
<g>
</g>
<g>
</g>
<g>
</g>
<g>
</g>
<g>
</g>
<g>
</g>
</svg>
