<?xml version="1.0" encoding="utf-8"?>
<!-- Generator: Adobe Illustrator 21.0.2, SVG Export Plug-In . SVG Version: 6.00 Build 0)  -->
<svg version="1.1" id="Layer_5" xmlns="http://www.w3.org/2000/svg" xmlns:xlink="http://www.w3.org/1999/xlink" x="0px" y="0px"
	 width="250px" height="200px" viewBox="0 0 250 200" style="enable-background:new 0 0 250 200;" xml:space="preserve">
<style type="text/css">
	
		.st0{fill:none;stroke:#1E1348;stroke-width:2;stroke-linecap:round;stroke-linejoin:round;stroke-miterlimit:10;stroke-dasharray:0,3;}
	.st1{fill:none;stroke:#1E1348;stroke-width:2;stroke-linecap:round;stroke-miterlimit:10;stroke-dasharray:0,6;}
	.st2{fill:none;}
	.st3{clip-path:url(#SVGID_2_);}
	.st4{clip-path:url(#SVGID_4_);fill:#DCE0DF;}
	.st5{clip-path:url(#SVGID_6_);}
	.st6{clip-path:url(#SVGID_8_);fill:#999999;}
	.st7{clip-path:url(#SVGID_10_);}
	.st8{clip-path:url(#SVGID_12_);fill:#FFFFFF;}
	.st9{clip-path:url(#SVGID_14_);}
	.st10{clip-path:url(#SVGID_16_);fill:#160D37;}
	.st11{clip-path:url(#SVGID_18_);}
	.st12{clip-path:url(#SVGID_20_);fill:#DCE0DF;}
	.st13{clip-path:url(#SVGID_22_);}
	.st14{clip-path:url(#SVGID_24_);fill:#B00D23;}
	.st15{clip-path:url(#SVGID_26_);}
	.st16{clip-path:url(#SVGID_28_);enable-background:new    ;}
	.st17{clip-path:url(#SVGID_30_);}
	.st18{clip-path:url(#SVGID_32_);}
	.st19{clip-path:url(#SVGID_34_);fill:#999999;}
	.st20{clip-path:url(#SVGID_36_);}
	.st21{clip-path:url(#SVGID_38_);fill:#FFFFFF;}
	.st22{clip-path:url(#SVGID_40_);}
	.st23{clip-path:url(#SVGID_42_);fill:#999999;}
	.st24{clip-path:url(#SVGID_44_);}
	.st25{clip-path:url(#SVGID_46_);fill:#FFFFFF;}
	.st26{clip-path:url(#SVGID_48_);}
	.st27{clip-path:url(#SVGID_50_);fill:#999999;}
	.st28{clip-path:url(#SVGID_52_);}
	.st29{clip-path:url(#SVGID_54_);fill:#999999;}
	.st30{clip-path:url(#SVGID_56_);}
	.st31{clip-path:url(#SVGID_58_);fill:#999999;}
	.st32{clip-path:url(#SVGID_60_);}
	.st33{clip-path:url(#SVGID_62_);fill:#999999;}
	.st34{clip-path:url(#SVGID_64_);}
	.st35{clip-path:url(#SVGID_66_);fill:#999999;}
	.st36{clip-path:url(#SVGID_68_);}
	.st37{clip-path:url(#SVGID_70_);fill:#999999;}
	.st38{clip-path:url(#SVGID_72_);}
	.st39{clip-path:url(#SVGID_74_);fill:#999999;}
	.st40{clip-path:url(#SVGID_76_);}
	.st41{clip-path:url(#SVGID_78_);fill:#999999;}
	.st42{clip-path:url(#SVGID_80_);}
	.st43{clip-path:url(#SVGID_82_);fill:#999999;}
	.st44{clip-path:url(#SVGID_84_);}
	.st45{clip-path:url(#SVGID_86_);fill:#999999;}
	.st46{clip-path:url(#SVGID_88_);}
	.st47{clip-path:url(#SVGID_90_);fill:#999999;}
	.st48{clip-path:url(#SVGID_92_);}
	.st49{clip-path:url(#SVGID_94_);fill:#999999;}
	.st50{clip-path:url(#SVGID_96_);}
	.st51{clip-path:url(#SVGID_98_);fill:#160D37;}
	.st52{clip-path:url(#SVGID_100_);}
	.st53{clip-path:url(#SVGID_102_);fill:#160D37;}
	.st54{clip-path:url(#SVGID_104_);}
	.st55{clip-path:url(#SVGID_106_);fill:#160D37;}
	.st56{clip-path:url(#SVGID_108_);}
	.st57{clip-path:url(#SVGID_110_);fill:#DCE0DF;}
	.st58{clip-path:url(#SVGID_112_);}
	.st59{clip-path:url(#SVGID_114_);fill:#999999;}
	.st60{clip-path:url(#SVGID_116_);}
	.st61{clip-path:url(#SVGID_118_);fill:#FFFFFF;}
	.st62{clip-path:url(#SVGID_120_);}
	.st63{clip-path:url(#SVGID_122_);fill:#160D37;}
	.st64{clip-path:url(#SVGID_124_);}
	.st65{clip-path:url(#SVGID_126_);fill:#DCE0DF;}
	.st66{clip-path:url(#SVGID_128_);}
	.st67{clip-path:url(#SVGID_130_);fill:#B00D23;}
	.st68{clip-path:url(#SVGID_132_);}
	.st69{clip-path:url(#SVGID_134_);enable-background:new    ;}
	.st70{clip-path:url(#SVGID_136_);}
	.st71{clip-path:url(#SVGID_138_);}
	.st72{clip-path:url(#SVGID_140_);fill:#999999;}
	.st73{clip-path:url(#SVGID_142_);}
	.st74{clip-path:url(#SVGID_144_);fill:#999999;}
	.st75{clip-path:url(#SVGID_146_);}
	.st76{clip-path:url(#SVGID_148_);fill:#999999;}
	.st77{clip-path:url(#SVGID_150_);}
	.st78{clip-path:url(#SVGID_152_);fill:#FFFFFF;}
	.st79{clip-path:url(#SVGID_154_);}
	.st80{clip-path:url(#SVGID_156_);fill:#999999;}
	.st81{clip-path:url(#SVGID_158_);}
	.st82{clip-path:url(#SVGID_160_);fill:#999999;}
	.st83{clip-path:url(#SVGID_162_);}
	.st84{clip-path:url(#SVGID_164_);fill:#999999;}
	.st85{clip-path:url(#SVGID_166_);}
	.st86{clip-path:url(#SVGID_168_);fill:#FFFFFF;}
	.st87{clip-path:url(#SVGID_170_);fill:none;stroke:#999999;stroke-width:0.5;stroke-miterlimit:10;}
	.st88{clip-path:url(#SVGID_172_);}
	.st89{clip-path:url(#SVGID_174_);fill:#999999;}
	.st90{clip-path:url(#SVGID_176_);}
	.st91{clip-path:url(#SVGID_178_);fill:#999999;}
	.st92{clip-path:url(#SVGID_180_);}
	.st93{clip-path:url(#SVGID_182_);fill:#999999;}
	.st94{clip-path:url(#SVGID_184_);}
	.st95{clip-path:url(#SVGID_186_);fill:#FFFFFF;}
	.st96{clip-path:url(#SVGID_188_);fill:none;stroke:#999999;stroke-width:0.5;stroke-miterlimit:10;}
	.st97{clip-path:url(#SVGID_190_);}
	.st98{clip-path:url(#SVGID_192_);fill:#160D37;}
	.st99{clip-path:url(#SVGID_194_);}
	.st100{clip-path:url(#SVGID_196_);fill:#160D37;}
	.st101{clip-path:url(#SVGID_198_);}
	.st102{clip-path:url(#SVGID_200_);fill:#160D37;}
	.st103{clip-path:url(#SVGID_202_);}
	.st104{clip-path:url(#SVGID_204_);fill:#160D37;}
</style>
<g>
	<ellipse class="st0" cx="125" cy="100" rx="98.08" ry="97.29"/>
	<ellipse class="st1" cx="125" cy="100" rx="90.98" ry="90.25"/>
</g>
<rect x="-212" y="-1287" class="st2" width="1600" height="3046"/>
<g>
	<g>
		<defs>
			<rect id="SVGID_1_" x="24.59" y="45.43" width="85.23" height="114.79"/>
		</defs>
		<clipPath id="SVGID_2_">
			<use xlink:href="#SVGID_1_"  style="overflow:visible;"/>
		</clipPath>
		<g class="st3">
			<defs>
				<rect id="SVGID_3_" x="-175.4" y="-1151.37" width="1453.87" height="2767.8"/>
			</defs>
			<clipPath id="SVGID_4_">
				<use xlink:href="#SVGID_3_"  style="overflow:visible;"/>
			</clipPath>
			<rect x="20.04" y="40.88" class="st4" width="94.32" height="123.88"/>
		</g>
	</g>
	<g>
		<defs>
			<path id="SVGID_5_" d="M26.61,39.52h81.23c1.13,0,2.05,0.92,2.05,2.03v4.07H24.55v-4.07C24.55,40.43,25.48,39.52,26.61,39.52
				L26.61,39.52z"/>
		</defs>
		<clipPath id="SVGID_6_">
			<use xlink:href="#SVGID_5_"  style="overflow:visible;"/>
		</clipPath>
		<g class="st5">
			<defs>
				<rect id="SVGID_7_" x="-175.4" y="-1151.37" width="1453.87" height="2767.8"/>
			</defs>
			<clipPath id="SVGID_8_">
				<use xlink:href="#SVGID_7_"  style="overflow:visible;"/>
			</clipPath>
			<rect x="20.01" y="34.98" class="st6" width="94.42" height="15.19"/>
		</g>
	</g>
	<g>
		<defs>
			<path id="SVGID_9_" d="M62.54,41.63h41.22c0.3,0,0.55,0.24,0.55,0.55v1.01c0,0.3-0.25,0.55-0.55,0.55H62.54
				c-0.3,0-0.55-0.24-0.55-0.55v-1.01C61.99,41.87,62.24,41.63,62.54,41.63"/>
		</defs>
		<clipPath id="SVGID_10_">
			<use xlink:href="#SVGID_9_"  style="overflow:visible;"/>
		</clipPath>
		<g class="st7">
			<defs>
				<rect id="SVGID_11_" x="-175.4" y="-1151.37" width="1453.87" height="2767.8"/>
			</defs>
			<clipPath id="SVGID_12_">
				<use xlink:href="#SVGID_11_"  style="overflow:visible;"/>
			</clipPath>
			<rect x="57.45" y="37.08" class="st8" width="51.41" height="11.19"/>
		</g>
	</g>
	<g>
		<defs>
			<path id="SVGID_13_" d="M28.65,41.26c0.65,0,1.18,0.52,1.18,1.17c0,0.65-0.53,1.17-1.18,1.17s-1.18-0.52-1.18-1.17
				C27.47,41.79,28,41.26,28.65,41.26"/>
		</defs>
		<clipPath id="SVGID_14_">
			<use xlink:href="#SVGID_13_"  style="overflow:visible;"/>
		</clipPath>
		<g class="st9">
			<defs>
				<rect id="SVGID_15_" x="-175.4" y="-1151.37" width="1453.87" height="2767.8"/>
			</defs>
			<clipPath id="SVGID_16_">
				<use xlink:href="#SVGID_15_"  style="overflow:visible;"/>
			</clipPath>
			<rect x="22.92" y="36.72" class="st10" width="11.45" height="11.43"/>
		</g>
	</g>
	<g>
		<defs>
			<path id="SVGID_17_" d="M33.31,41.26c0.65,0,1.18,0.52,1.18,1.17c0,0.65-0.53,1.17-1.18,1.17c-0.65,0-1.18-0.52-1.18-1.17
				C32.13,41.79,32.66,41.26,33.31,41.26"/>
		</defs>
		<clipPath id="SVGID_18_">
			<use xlink:href="#SVGID_17_"  style="overflow:visible;"/>
		</clipPath>
		<g class="st11">
			<defs>
				<rect id="SVGID_19_" x="-175.4" y="-1151.37" width="1453.87" height="2767.8"/>
			</defs>
			<clipPath id="SVGID_20_">
				<use xlink:href="#SVGID_19_"  style="overflow:visible;"/>
			</clipPath>
			<rect x="27.59" y="36.72" class="st12" width="11.45" height="11.43"/>
		</g>
	</g>
	<g>
		<defs>
			<path id="SVGID_21_" d="M37.98,41.26c0.65,0,1.18,0.52,1.18,1.17c0,0.65-0.53,1.17-1.18,1.17c-0.65,0-1.18-0.52-1.18-1.17
				C36.8,41.79,37.33,41.26,37.98,41.26"/>
		</defs>
		<clipPath id="SVGID_22_">
			<use xlink:href="#SVGID_21_"  style="overflow:visible;"/>
		</clipPath>
		<g class="st13">
			<defs>
				<rect id="SVGID_23_" x="-175.4" y="-1151.37" width="1453.87" height="2767.8"/>
			</defs>
			<clipPath id="SVGID_24_">
				<use xlink:href="#SVGID_23_"  style="overflow:visible;"/>
			</clipPath>
			<rect x="32.25" y="36.72" class="st14" width="11.45" height="11.43"/>
		</g>
	</g>
	<g>
		<defs>
			<rect id="SVGID_25_" x="6.33" y="39.52" width="103.55" height="120.7"/>
		</defs>
		<clipPath id="SVGID_26_">
			<use xlink:href="#SVGID_25_"  style="overflow:visible;"/>
		</clipPath>
		<g class="st15">
			<defs>
				<rect id="SVGID_27_" x="-175.4" y="-1151.37" width="1453.87" height="2767.8"/>
			</defs>
			<clipPath id="SVGID_28_">
				<use xlink:href="#SVGID_27_"  style="overflow:visible;"/>
			</clipPath>
			<g class="st16">
				<g>
					<defs>
						<rect id="SVGID_29_" x="6.33" y="48.07" width="100.86" height="106.31"/>
					</defs>
					<clipPath id="SVGID_30_">
						<use xlink:href="#SVGID_29_"  style="overflow:visible;"/>
					</clipPath>
					<g class="st17">
						<defs>
							<rect id="SVGID_31_" x="27.98" y="48.81" width="78.57" height="23.69"/>
						</defs>
						<clipPath id="SVGID_32_">
							<use xlink:href="#SVGID_31_"  style="overflow:visible;"/>
						</clipPath>
						<g class="st18">
							<defs>
								<rect id="SVGID_33_" x="6.33" y="38.98" width="103.59" height="121.76"/>
							</defs>
							<clipPath id="SVGID_34_">
								<use xlink:href="#SVGID_33_"  style="overflow:visible;"/>
							</clipPath>
							<rect x="23.44" y="44.27" class="st19" width="87.65" height="32.78"/>
						</g>
					</g>
					<g class="st17">
						<defs>
							<rect id="SVGID_35_" x="32.31" y="62.8" width="69.69" height="5.19"/>
						</defs>
						<clipPath id="SVGID_36_">
							<use xlink:href="#SVGID_35_"  style="overflow:visible;"/>
						</clipPath>
						<g class="st20">
							<defs>
								<rect id="SVGID_37_" x="6.33" y="38.98" width="103.59" height="121.76"/>
							</defs>
							<clipPath id="SVGID_38_">
								<use xlink:href="#SVGID_37_"  style="overflow:visible;"/>
							</clipPath>
							<rect x="27.77" y="58.26" class="st21" width="78.77" height="14.28"/>
						</g>
					</g>
					<g class="st17">
						<defs>
							<rect id="SVGID_39_" x="28.29" y="105.22" width="77.8" height="19.77"/>
						</defs>
						<clipPath id="SVGID_40_">
							<use xlink:href="#SVGID_39_"  style="overflow:visible;"/>
						</clipPath>
						<g class="st22">
							<defs>
								<rect id="SVGID_41_" x="6.33" y="38.98" width="103.59" height="121.76"/>
							</defs>
							<clipPath id="SVGID_42_">
								<use xlink:href="#SVGID_41_"  style="overflow:visible;"/>
							</clipPath>
							<rect x="23.75" y="100.68" class="st23" width="86.89" height="28.85"/>
						</g>
					</g>
					<g class="st17">
						<defs>
							<path id="SVGID_43_" d="M42.86,112.61h47.73v-0.93H42.86V112.61z M42.86,117.14h33.81v-0.93H42.86V117.14z M42.86,114.88
								h47.73v-0.93H42.86V114.88z"/>
						</defs>
						<clipPath id="SVGID_44_">
							<use xlink:href="#SVGID_43_"  style="overflow:visible;"/>
						</clipPath>
						<g class="st24">
							<defs>
								<rect id="SVGID_45_" x="6.33" y="38.98" width="103.59" height="121.76"/>
							</defs>
							<clipPath id="SVGID_46_">
								<use xlink:href="#SVGID_45_"  style="overflow:visible;"/>
							</clipPath>
							<rect x="38.32" y="107.14" class="st25" width="56.82" height="14.55"/>
						</g>
					</g>
					<g class="st17">
						<defs>
							<path id="SVGID_47_" d="M35.34,95.01h16.78v-0.93H35.34V95.01z M35.34,99.54h11.88v-0.93H35.34V99.54z M35.34,97.28h16.78
								v-0.93H35.34V97.28z"/>
						</defs>
						<clipPath id="SVGID_48_">
							<use xlink:href="#SVGID_47_"  style="overflow:visible;"/>
						</clipPath>
						<g class="st26">
							<defs>
								<rect id="SVGID_49_" x="6.33" y="38.98" width="103.59" height="121.76"/>
							</defs>
							<clipPath id="SVGID_50_">
								<use xlink:href="#SVGID_49_"  style="overflow:visible;"/>
							</clipPath>
							<rect x="30.8" y="89.54" class="st27" width="25.86" height="14.55"/>
						</g>
					</g>
					<g class="st17">
						<defs>
							<path id="SVGID_51_" d="M59.26,95.09h16.78v-0.93H59.26V95.09z M59.26,99.62h11.88v-0.93H59.26V99.62z M59.26,97.35h16.78
								v-0.93H59.26V97.35z"/>
						</defs>
						<clipPath id="SVGID_52_">
							<use xlink:href="#SVGID_51_"  style="overflow:visible;"/>
						</clipPath>
						<g class="st28">
							<defs>
								<rect id="SVGID_53_" x="6.33" y="38.98" width="103.59" height="121.76"/>
							</defs>
							<clipPath id="SVGID_54_">
								<use xlink:href="#SVGID_53_"  style="overflow:visible;"/>
							</clipPath>
							<rect x="54.71" y="89.61" class="st29" width="25.86" height="14.55"/>
						</g>
					</g>
					<g class="st17">
						<defs>
							<path id="SVGID_55_" d="M82.48,95.09h16.78v-0.93H82.48V95.09z M82.48,99.62h11.88v-0.93H82.48V99.62z M82.48,97.35h16.78
								v-0.93H82.48V97.35z"/>
						</defs>
						<clipPath id="SVGID_56_">
							<use xlink:href="#SVGID_55_"  style="overflow:visible;"/>
						</clipPath>
						<g class="st30">
							<defs>
								<rect id="SVGID_57_" x="6.33" y="38.98" width="103.59" height="121.76"/>
							</defs>
							<clipPath id="SVGID_58_">
								<use xlink:href="#SVGID_57_"  style="overflow:visible;"/>
							</clipPath>
							<rect x="77.94" y="89.61" class="st31" width="25.86" height="14.55"/>
						</g>
					</g>
					<g class="st17">
						<defs>
							<path id="SVGID_59_" d="M49.93,84.62c0,3.83-3.13,6.93-6.99,6.93s-6.99-3.1-6.99-6.93c0-3.83,3.13-6.93,6.99-6.93
								S49.93,80.79,49.93,84.62"/>
						</defs>
						<clipPath id="SVGID_60_">
							<use xlink:href="#SVGID_59_"  style="overflow:visible;"/>
						</clipPath>
						<g class="st32">
							<defs>
								<rect id="SVGID_61_" x="6.33" y="38.98" width="103.59" height="121.76"/>
							</defs>
							<clipPath id="SVGID_62_">
								<use xlink:href="#SVGID_61_"  style="overflow:visible;"/>
							</clipPath>
							<rect x="31.41" y="73.15" class="st33" width="23.07" height="22.94"/>
						</g>
					</g>
					<g class="st17">
						<defs>
							<path id="SVGID_63_" d="M74.07,84.62c0,3.83-3.13,6.93-6.99,6.93c-3.86,0-6.99-3.1-6.99-6.93c0-3.83,3.13-6.93,6.99-6.93
								C70.94,77.69,74.07,80.79,74.07,84.62"/>
						</defs>
						<clipPath id="SVGID_64_">
							<use xlink:href="#SVGID_63_"  style="overflow:visible;"/>
						</clipPath>
						<g class="st34">
							<defs>
								<rect id="SVGID_65_" x="6.33" y="38.98" width="103.59" height="121.76"/>
							</defs>
							<clipPath id="SVGID_66_">
								<use xlink:href="#SVGID_65_"  style="overflow:visible;"/>
							</clipPath>
							<rect x="55.55" y="73.15" class="st35" width="23.07" height="22.94"/>
						</g>
					</g>
					<g class="st17">
						<defs>
							<path id="SVGID_67_" d="M97.23,84.69c0,3.83-3.13,6.93-6.99,6.93c-3.86,0-6.99-3.1-6.99-6.93c0-3.83,3.13-6.93,6.99-6.93
								C94.1,77.77,97.23,80.87,97.23,84.69"/>
						</defs>
						<clipPath id="SVGID_68_">
							<use xlink:href="#SVGID_67_"  style="overflow:visible;"/>
						</clipPath>
						<g class="st36">
							<defs>
								<rect id="SVGID_69_" x="6.33" y="38.98" width="103.59" height="121.76"/>
							</defs>
							<clipPath id="SVGID_70_">
								<use xlink:href="#SVGID_69_"  style="overflow:visible;"/>
							</clipPath>
							<rect x="78.7" y="73.22" class="st37" width="23.07" height="22.94"/>
						</g>
					</g>
					<g class="st17">
						<defs>
							<path id="SVGID_71_" d="M28.74,149.84h23v-0.93h-23V149.84z M28.74,154.37h16.29v-0.93H28.74V154.37z M28.74,152.11h23v-0.93
								h-23V152.11z"/>
						</defs>
						<clipPath id="SVGID_72_">
							<use xlink:href="#SVGID_71_"  style="overflow:visible;"/>
						</clipPath>
						<g class="st38">
							<defs>
								<rect id="SVGID_73_" x="6.33" y="38.98" width="103.59" height="121.76"/>
							</defs>
							<clipPath id="SVGID_74_">
								<use xlink:href="#SVGID_73_"  style="overflow:visible;"/>
							</clipPath>
							<rect x="24.2" y="144.37" class="st39" width="32.09" height="14.55"/>
						</g>
					</g>
					<g class="st17">
						<defs>
							<rect id="SVGID_75_" x="28.21" y="131.17" width="23.61" height="14.27"/>
						</defs>
						<clipPath id="SVGID_76_">
							<use xlink:href="#SVGID_75_"  style="overflow:visible;"/>
						</clipPath>
						<g class="st40">
							<defs>
								<rect id="SVGID_77_" x="6.33" y="38.98" width="103.59" height="121.76"/>
							</defs>
							<clipPath id="SVGID_78_">
								<use xlink:href="#SVGID_77_"  style="overflow:visible;"/>
							</clipPath>
							<rect x="23.67" y="126.63" class="st41" width="32.7" height="23.36"/>
						</g>
					</g>
					<g class="st17">
						<defs>
							<rect id="SVGID_79_" x="55.2" y="131.17" width="23.61" height="14.27"/>
						</defs>
						<clipPath id="SVGID_80_">
							<use xlink:href="#SVGID_79_"  style="overflow:visible;"/>
						</clipPath>
						<g class="st42">
							<defs>
								<rect id="SVGID_81_" x="6.33" y="38.98" width="103.59" height="121.76"/>
							</defs>
							<clipPath id="SVGID_82_">
								<use xlink:href="#SVGID_81_"  style="overflow:visible;"/>
							</clipPath>
							<rect x="50.65" y="126.63" class="st43" width="32.7" height="23.36"/>
						</g>
					</g>
					<g class="st17">
						<defs>
							<rect id="SVGID_83_" x="82.63" y="131.17" width="23.61" height="14.27"/>
						</defs>
						<clipPath id="SVGID_84_">
							<use xlink:href="#SVGID_83_"  style="overflow:visible;"/>
						</clipPath>
						<g class="st44">
							<defs>
								<rect id="SVGID_85_" x="6.33" y="38.98" width="103.59" height="121.76"/>
							</defs>
							<clipPath id="SVGID_86_">
								<use xlink:href="#SVGID_85_"  style="overflow:visible;"/>
							</clipPath>
							<rect x="78.09" y="126.63" class="st45" width="32.7" height="23.36"/>
						</g>
					</g>
					<g class="st17">
						<defs>
							<path id="SVGID_87_" d="M55.61,149.69h23v-0.93h-23V149.69z M55.61,154.22h16.29v-0.93H55.61V154.22z M55.61,151.96h23v-0.93
								h-23V151.96z"/>
						</defs>
						<clipPath id="SVGID_88_">
							<use xlink:href="#SVGID_87_"  style="overflow:visible;"/>
						</clipPath>
						<g class="st46">
							<defs>
								<rect id="SVGID_89_" x="6.33" y="38.98" width="103.59" height="121.76"/>
							</defs>
							<clipPath id="SVGID_90_">
								<use xlink:href="#SVGID_89_"  style="overflow:visible;"/>
							</clipPath>
							<rect x="51.07" y="144.22" class="st47" width="32.09" height="14.55"/>
						</g>
					</g>
					<g class="st17">
						<defs>
							<path id="SVGID_91_" d="M83.09,149.69h23v-0.93h-23V149.69z M83.09,154.22h16.29v-0.93H83.09V154.22z M83.09,151.96h23v-0.93
								h-23V151.96z"/>
						</defs>
						<clipPath id="SVGID_92_">
							<use xlink:href="#SVGID_91_"  style="overflow:visible;"/>
						</clipPath>
						<g class="st48">
							<defs>
								<rect id="SVGID_93_" x="6.33" y="38.98" width="103.59" height="121.76"/>
							</defs>
							<clipPath id="SVGID_94_">
								<use xlink:href="#SVGID_93_"  style="overflow:visible;"/>
							</clipPath>
							<rect x="78.55" y="144.22" class="st49" width="32.09" height="14.55"/>
						</g>
					</g>
					<g class="st17">
						<defs>
							<path id="SVGID_95_" d="M8.01,122.63c2.23,2.22,5.86,2.22,8.1,0l14.02-13.89c-3.25-2.07-6.01-4.81-8.1-8.02L8.01,114.6
								C5.77,116.82,5.77,120.41,8.01,122.63"/>
						</defs>
						<clipPath id="SVGID_96_">
							<use xlink:href="#SVGID_95_"  style="overflow:visible;"/>
						</clipPath>
						<g class="st50">
							<defs>
								<rect id="SVGID_97_" x="6.33" y="38.98" width="103.59" height="121.76"/>
							</defs>
							<clipPath id="SVGID_98_">
								<use xlink:href="#SVGID_97_"  style="overflow:visible;"/>
							</clipPath>
							<rect x="1.79" y="96.17" class="st51" width="32.88" height="32.66"/>
						</g>
					</g>
					<g class="st17">
						<defs>
							<path id="SVGID_99_" d="M44.51,109.16c12.65,0,22.91-10.16,22.91-22.7c0-12.54-10.26-22.7-22.91-22.7
								c-12.65,0-22.91,10.16-22.91,22.7C21.61,98.99,31.86,109.16,44.51,109.16 M27.33,86.46c0-9.39,7.71-17.02,17.18-17.02
								c9.47,0,17.18,7.64,17.18,17.02c0,9.39-7.71,17.02-17.18,17.02C35.04,103.48,27.33,95.85,27.33,86.46"/>
						</defs>
						<clipPath id="SVGID_100_">
							<use xlink:href="#SVGID_99_"  style="overflow:visible;"/>
						</clipPath>
						<g class="st52">
							<defs>
								<rect id="SVGID_101_" x="6.33" y="38.98" width="103.59" height="121.76"/>
							</defs>
							<clipPath id="SVGID_102_">
								<use xlink:href="#SVGID_101_"  style="overflow:visible;"/>
							</clipPath>
							<rect x="17.06" y="59.22" class="st53" width="54.91" height="54.48"/>
						</g>
					</g>
					<g class="st17">
						<defs>
							<path id="SVGID_103_" d="M44.51,73.22V77c5.26,0,9.55,4.24,9.55,9.46h3.82C57.88,79.16,51.88,73.22,44.51,73.22"/>
						</defs>
						<clipPath id="SVGID_104_">
							<use xlink:href="#SVGID_103_"  style="overflow:visible;"/>
						</clipPath>
						<g class="st54">
							<defs>
								<rect id="SVGID_105_" x="6.33" y="38.98" width="103.59" height="121.76"/>
							</defs>
							<clipPath id="SVGID_106_">
								<use xlink:href="#SVGID_105_"  style="overflow:visible;"/>
							</clipPath>
							<rect x="39.97" y="68.68" class="st55" width="22.45" height="22.33"/>
						</g>
					</g>
				</g>
			</g>
		</g>
	</g>
	<g>
		<defs>
			<rect id="SVGID_107_" x="160.1" y="46.25" width="83.49" height="113.29"/>
		</defs>
		<clipPath id="SVGID_108_">
			<use xlink:href="#SVGID_107_"  style="overflow:visible;"/>
		</clipPath>
		<g class="st56">
			<defs>
				<rect id="SVGID_109_" x="-175.4" y="-1151.37" width="1453.87" height="2767.8"/>
			</defs>
			<clipPath id="SVGID_110_">
				<use xlink:href="#SVGID_109_"  style="overflow:visible;"/>
			</clipPath>
			<rect x="155.56" y="41.71" class="st57" width="92.58" height="122.38"/>
		</g>
	</g>
	<g>
		<defs>
			<path id="SVGID_111_" d="M162.08,40.42h79.57c1.11,0,2.01,0.9,2.01,2.01v4.01h-83.59v-4.01
				C160.07,41.32,160.98,40.42,162.08,40.42L162.08,40.42z"/>
		</defs>
		<clipPath id="SVGID_112_">
			<use xlink:href="#SVGID_111_"  style="overflow:visible;"/>
		</clipPath>
		<g class="st58">
			<defs>
				<rect id="SVGID_113_" x="-175.4" y="-1151.37" width="1453.87" height="2767.8"/>
			</defs>
			<clipPath id="SVGID_114_">
				<use xlink:href="#SVGID_113_"  style="overflow:visible;"/>
			</clipPath>
			<rect x="155.53" y="35.88" class="st59" width="92.68" height="15.11"/>
		</g>
	</g>
	<g>
		<defs>
			<path id="SVGID_115_" d="M197.29,42.5h40.38c0.3,0,0.54,0.24,0.54,0.54v1c0,0.3-0.24,0.54-0.54,0.54h-40.38
				c-0.3,0-0.54-0.24-0.54-0.54v-1C196.75,42.74,196.99,42.5,197.29,42.5"/>
		</defs>
		<clipPath id="SVGID_116_">
			<use xlink:href="#SVGID_115_"  style="overflow:visible;"/>
		</clipPath>
		<g class="st60">
			<defs>
				<rect id="SVGID_117_" x="-175.4" y="-1151.37" width="1453.87" height="2767.8"/>
			</defs>
			<clipPath id="SVGID_118_">
				<use xlink:href="#SVGID_117_"  style="overflow:visible;"/>
			</clipPath>
			<rect x="192.2" y="37.96" class="st61" width="50.55" height="11.17"/>
		</g>
	</g>
	<g>
		<defs>
			<path id="SVGID_119_" d="M164.08,42.14c0.64,0,1.16,0.52,1.16,1.16c0,0.64-0.52,1.16-1.16,1.16c-0.64,0-1.16-0.52-1.16-1.16
				C162.92,42.66,163.44,42.14,164.08,42.14"/>
		</defs>
		<clipPath id="SVGID_120_">
			<use xlink:href="#SVGID_119_"  style="overflow:visible;"/>
		</clipPath>
		<g class="st62">
			<defs>
				<rect id="SVGID_121_" x="-175.4" y="-1151.37" width="1453.87" height="2767.8"/>
			</defs>
			<clipPath id="SVGID_122_">
				<use xlink:href="#SVGID_121_"  style="overflow:visible;"/>
			</clipPath>
			<rect x="158.38" y="37.6" class="st63" width="11.4" height="11.4"/>
		</g>
	</g>
	<g>
		<defs>
			<path id="SVGID_123_" d="M168.65,42.14c0.64,0,1.16,0.52,1.16,1.16c0,0.64-0.52,1.16-1.16,1.16c-0.64,0-1.16-0.52-1.16-1.16
				C167.5,42.66,168.01,42.14,168.65,42.14"/>
		</defs>
		<clipPath id="SVGID_124_">
			<use xlink:href="#SVGID_123_"  style="overflow:visible;"/>
		</clipPath>
		<g class="st64">
			<defs>
				<rect id="SVGID_125_" x="-175.4" y="-1151.37" width="1453.87" height="2767.8"/>
			</defs>
			<clipPath id="SVGID_126_">
				<use xlink:href="#SVGID_125_"  style="overflow:visible;"/>
			</clipPath>
			<rect x="162.95" y="37.6" class="st65" width="11.4" height="11.4"/>
		</g>
	</g>
	<g>
		<defs>
			<path id="SVGID_127_" d="M173.22,42.14c0.64,0,1.16,0.52,1.16,1.16c0,0.64-0.52,1.16-1.16,1.16c-0.64,0-1.16-0.52-1.16-1.16
				C172.07,42.66,172.58,42.14,173.22,42.14"/>
		</defs>
		<clipPath id="SVGID_128_">
			<use xlink:href="#SVGID_127_"  style="overflow:visible;"/>
		</clipPath>
		<g class="st66">
			<defs>
				<rect id="SVGID_129_" x="-175.4" y="-1151.37" width="1453.87" height="2767.8"/>
			</defs>
			<clipPath id="SVGID_130_">
				<use xlink:href="#SVGID_129_"  style="overflow:visible;"/>
			</clipPath>
			<rect x="167.52" y="37.6" class="st67" width="11.4" height="11.4"/>
		</g>
	</g>
	<g>
		<defs>
			<rect id="SVGID_131_" x="146.27" y="40.42" width="97.4" height="119.12"/>
		</defs>
		<clipPath id="SVGID_132_">
			<use xlink:href="#SVGID_131_"  style="overflow:visible;"/>
		</clipPath>
		<g class="st68">
			<defs>
				<rect id="SVGID_133_" x="-175.4" y="-1151.37" width="1453.87" height="2767.8"/>
			</defs>
			<clipPath id="SVGID_134_">
				<use xlink:href="#SVGID_133_"  style="overflow:visible;"/>
			</clipPath>
			<g class="st69">
				<g>
					<defs>
						<rect id="SVGID_135_" x="146.27" y="55.34" width="96.32" height="92.68"/>
					</defs>
					<clipPath id="SVGID_136_">
						<use xlink:href="#SVGID_135_"  style="overflow:visible;"/>
					</clipPath>
					<g class="st70">
						<defs>
							<path id="SVGID_137_" d="M164.17,72.04h49.46v-0.92h-49.46V72.04z M164.17,76.51h35.04v-0.92h-35.04V76.51z M164.17,74.27
								h49.46v-0.92h-49.46V74.27z"/>
						</defs>
						<clipPath id="SVGID_138_">
							<use xlink:href="#SVGID_137_"  style="overflow:visible;"/>
						</clipPath>
						<g class="st71">
							<defs>
								<rect id="SVGID_139_" x="146.27" y="39.89" width="98.14" height="119.94"/>
							</defs>
							<clipPath id="SVGID_140_">
								<use xlink:href="#SVGID_139_"  style="overflow:visible;"/>
							</clipPath>
							<rect x="159.63" y="66.58" class="st72" width="58.55" height="14.48"/>
						</g>
					</g>
					<g class="st70">
						<defs>
							<rect id="SVGID_141_" x="163.65" y="55.73" width="18.99" height="12.39"/>
						</defs>
						<clipPath id="SVGID_142_">
							<use xlink:href="#SVGID_141_"  style="overflow:visible;"/>
						</clipPath>
						<g class="st73">
							<defs>
								<rect id="SVGID_143_" x="146.27" y="39.89" width="98.14" height="119.94"/>
							</defs>
							<clipPath id="SVGID_144_">
								<use xlink:href="#SVGID_143_"  style="overflow:visible;"/>
							</clipPath>
							<rect x="159.11" y="51.18" class="st74" width="28.07" height="21.48"/>
						</g>
					</g>
					<g class="st70">
						<defs>
							<path id="SVGID_145_" d="M185.59,56.95h27.52v-0.92h-27.52V56.95z M185.59,61.43h19.49v-0.92h-19.49V61.43z M185.59,59.19
								h27.52v-0.92h-27.52V59.19z"/>
						</defs>
						<clipPath id="SVGID_146_">
							<use xlink:href="#SVGID_145_"  style="overflow:visible;"/>
						</clipPath>
						<g class="st75">
							<defs>
								<rect id="SVGID_147_" x="146.27" y="39.89" width="98.14" height="119.94"/>
							</defs>
							<clipPath id="SVGID_148_">
								<use xlink:href="#SVGID_147_"  style="overflow:visible;"/>
							</clipPath>
							<rect x="181.04" y="51.49" class="st76" width="36.6" height="14.48"/>
						</g>
					</g>
					<g class="st70">
						<defs>
							<rect id="SVGID_149_" x="216.57" y="55.99" width="22.57" height="22.77"/>
						</defs>
						<clipPath id="SVGID_150_">
							<use xlink:href="#SVGID_149_"  style="overflow:visible;"/>
						</clipPath>
						<g class="st77">
							<defs>
								<rect id="SVGID_151_" x="146.27" y="39.89" width="98.14" height="119.94"/>
							</defs>
							<clipPath id="SVGID_152_">
								<use xlink:href="#SVGID_151_"  style="overflow:visible;"/>
							</clipPath>
							<rect x="212.03" y="51.45" class="st78" width="31.65" height="31.86"/>
						</g>
					</g>
					<g class="st70">
						<defs>
							<path id="SVGID_153_" d="M164.7,106.44h49.46v-0.92H164.7V106.44z M164.7,110.91h35.04v-0.92H164.7V110.91z M164.7,108.67
								h49.46v-0.92H164.7V108.67z"/>
						</defs>
						<clipPath id="SVGID_154_">
							<use xlink:href="#SVGID_153_"  style="overflow:visible;"/>
						</clipPath>
						<g class="st79">
							<defs>
								<rect id="SVGID_155_" x="146.27" y="39.89" width="98.14" height="119.94"/>
							</defs>
							<clipPath id="SVGID_156_">
								<use xlink:href="#SVGID_155_"  style="overflow:visible;"/>
							</clipPath>
							<rect x="160.16" y="100.97" class="st80" width="58.55" height="14.48"/>
						</g>
					</g>
					<g class="st70">
						<defs>
							<rect id="SVGID_157_" x="164.18" y="90.12" width="18.99" height="12.39"/>
						</defs>
						<clipPath id="SVGID_158_">
							<use xlink:href="#SVGID_157_"  style="overflow:visible;"/>
						</clipPath>
						<g class="st81">
							<defs>
								<rect id="SVGID_159_" x="146.27" y="39.89" width="98.14" height="119.94"/>
							</defs>
							<clipPath id="SVGID_160_">
								<use xlink:href="#SVGID_159_"  style="overflow:visible;"/>
							</clipPath>
							<rect x="159.64" y="85.58" class="st82" width="28.07" height="21.48"/>
						</g>
					</g>
					<g class="st70">
						<defs>
							<path id="SVGID_161_" d="M186.12,91.35h27.52v-0.92h-27.52V91.35z M186.12,95.83h19.49v-0.92h-19.49V95.83z M186.12,93.59
								h27.52v-0.92h-27.52V93.59z"/>
						</defs>
						<clipPath id="SVGID_162_">
							<use xlink:href="#SVGID_161_"  style="overflow:visible;"/>
						</clipPath>
						<g class="st83">
							<defs>
								<rect id="SVGID_163_" x="146.27" y="39.89" width="98.14" height="119.94"/>
							</defs>
							<clipPath id="SVGID_164_">
								<use xlink:href="#SVGID_163_"  style="overflow:visible;"/>
							</clipPath>
							<rect x="181.57" y="85.89" class="st84" width="36.6" height="14.48"/>
						</g>
					</g>
					<g class="st70">
						<defs>
							<rect id="SVGID_165_" x="217.1" y="90.39" width="22.57" height="22.77"/>
						</defs>
						<clipPath id="SVGID_166_">
							<use xlink:href="#SVGID_165_"  style="overflow:visible;"/>
						</clipPath>
						<g class="st85">
							<defs>
								<rect id="SVGID_167_" x="146.27" y="39.89" width="98.14" height="119.94"/>
							</defs>
							<clipPath id="SVGID_168_">
								<use xlink:href="#SVGID_167_"  style="overflow:visible;"/>
							</clipPath>
							<rect x="212.56" y="85.85" class="st86" width="31.65" height="31.86"/>
						</g>
					</g>
					<g class="st70">
						<defs>
							<rect id="SVGID_169_" x="146.27" y="39.89" width="98.14" height="119.94"/>
						</defs>
						<clipPath id="SVGID_170_">
							<use xlink:href="#SVGID_169_"  style="overflow:visible;"/>
						</clipPath>
						<line class="st87" x1="163.53" y1="85.5" x2="239.35" y2="85.5"/>
					</g>
					<g class="st70">
						<defs>
							<path id="SVGID_171_" d="M165.23,140.83h49.46v-0.92h-49.46V140.83z M165.23,145.31h35.04v-0.92h-35.04V145.31z
								 M165.23,143.07h49.46v-0.92h-49.46V143.07z"/>
						</defs>
						<clipPath id="SVGID_172_">
							<use xlink:href="#SVGID_171_"  style="overflow:visible;"/>
						</clipPath>
						<g class="st88">
							<defs>
								<rect id="SVGID_173_" x="146.27" y="39.89" width="98.14" height="119.94"/>
							</defs>
							<clipPath id="SVGID_174_">
								<use xlink:href="#SVGID_173_"  style="overflow:visible;"/>
							</clipPath>
							<rect x="160.69" y="135.37" class="st89" width="58.55" height="14.48"/>
						</g>
					</g>
					<g class="st70">
						<defs>
							<rect id="SVGID_175_" x="164.71" y="124.52" width="18.99" height="12.39"/>
						</defs>
						<clipPath id="SVGID_176_">
							<use xlink:href="#SVGID_175_"  style="overflow:visible;"/>
						</clipPath>
						<g class="st90">
							<defs>
								<rect id="SVGID_177_" x="146.27" y="39.89" width="98.14" height="119.94"/>
							</defs>
							<clipPath id="SVGID_178_">
								<use xlink:href="#SVGID_177_"  style="overflow:visible;"/>
							</clipPath>
							<rect x="160.17" y="119.98" class="st91" width="28.07" height="21.48"/>
						</g>
					</g>
					<g class="st70">
						<defs>
							<path id="SVGID_179_" d="M186.65,125.75h27.52v-0.92h-27.52V125.75z M186.65,130.22h19.49v-0.92h-19.49V130.22z
								 M186.65,127.99h27.52v-0.92h-27.52V127.99z"/>
						</defs>
						<clipPath id="SVGID_180_">
							<use xlink:href="#SVGID_179_"  style="overflow:visible;"/>
						</clipPath>
						<g class="st92">
							<defs>
								<rect id="SVGID_181_" x="146.27" y="39.89" width="98.14" height="119.94"/>
							</defs>
							<clipPath id="SVGID_182_">
								<use xlink:href="#SVGID_181_"  style="overflow:visible;"/>
							</clipPath>
							<rect x="182.1" y="120.29" class="st93" width="36.6" height="14.48"/>
						</g>
					</g>
					<g class="st70">
						<defs>
							<rect id="SVGID_183_" x="217.63" y="124.79" width="22.57" height="22.77"/>
						</defs>
						<clipPath id="SVGID_184_">
							<use xlink:href="#SVGID_183_"  style="overflow:visible;"/>
						</clipPath>
						<g class="st94">
							<defs>
								<rect id="SVGID_185_" x="146.27" y="39.89" width="98.14" height="119.94"/>
							</defs>
							<clipPath id="SVGID_186_">
								<use xlink:href="#SVGID_185_"  style="overflow:visible;"/>
							</clipPath>
							<rect x="213.09" y="120.24" class="st95" width="31.65" height="31.86"/>
						</g>
					</g>
					<g class="st70">
						<defs>
							<rect id="SVGID_187_" x="146.27" y="39.89" width="98.14" height="119.94"/>
						</defs>
						<clipPath id="SVGID_188_">
							<use xlink:href="#SVGID_187_"  style="overflow:visible;"/>
						</clipPath>
						<line class="st96" x1="164.06" y1="119.9" x2="239.88" y2="119.9"/>
					</g>
					<g class="st70">
						<defs>
							<path id="SVGID_189_" d="M172.59,100.86c-0.42,0-0.79,0.16-1.09,0.45c-0.29,0.28-0.46,0.67-0.46,1.09l0.04,10.3h-20.67V68.38
								h30.42v5.49c0.61-0.41,1.35-0.65,2.16-0.65h2.21v-6.93c0-0.75-0.63-1.38-1.38-1.38h-36.17c-0.75,0-1.38,0.61-1.38,1.38v48.67
								c0,0.77,0.61,1.38,1.38,1.38h26.98c0.4,0,0.77-0.16,1.03-0.45l3.46-3.87v-11.17H172.59z"/>
						</defs>
						<clipPath id="SVGID_190_">
							<use xlink:href="#SVGID_189_"  style="overflow:visible;"/>
						</clipPath>
						<g class="st97">
							<defs>
								<rect id="SVGID_191_" x="146.27" y="39.89" width="98.14" height="119.94"/>
							</defs>
							<clipPath id="SVGID_192_">
								<use xlink:href="#SVGID_191_"  style="overflow:visible;"/>
							</clipPath>
							<rect x="141.72" y="60.37" class="st98" width="48.02" height="60.52"/>
						</g>
					</g>
					<g class="st70">
						<defs>
							<path id="SVGID_193_" d="M168.45,96.4l8.95-7.38c0,0,0.69-0.59,0.06-1.24c-0.87-0.87-9.23-7.14-9.23-7.14
								s-1.11-1.12-1.11,0.36v3.84h-12.85c0,0-0.53-0.02-0.53,0.67v5.86c0,0.95,0.65,0.79,0.65,0.79h13.01v4.16
								C167.38,97.52,168.45,96.4,168.45,96.4"/>
						</defs>
						<clipPath id="SVGID_194_">
							<use xlink:href="#SVGID_193_"  style="overflow:visible;"/>
						</clipPath>
						<g class="st99">
							<defs>
								<rect id="SVGID_195_" x="146.27" y="39.89" width="98.14" height="119.94"/>
							</defs>
							<clipPath id="SVGID_196_">
								<use xlink:href="#SVGID_195_"  style="overflow:visible;"/>
							</clipPath>
							<rect x="149.2" y="75.68" class="st100" width="33.07" height="25.74"/>
						</g>
					</g>
					<g class="st70">
						<defs>
							<path id="SVGID_197_" d="M218.07,75.31H181.9c-0.77,0-1.38,0.63-1.38,1.38v48.67c0,0.77,0.61,1.38,1.38,1.38h26.98
								c0.39,0,0.77-0.16,1.03-0.45l9.19-10.26c0.23-0.26,0.35-0.59,0.35-0.93V76.71C219.46,75.94,218.83,75.31,218.07,75.31z
								 M215.09,111.26h-8.24c-0.41,0-0.79,0.16-1.09,0.45c-0.3,0.27-0.45,0.67-0.45,1.08l0.04,10.3h-20.65V78.78h30.4V111.26z"/>
						</defs>
						<clipPath id="SVGID_198_">
							<use xlink:href="#SVGID_197_"  style="overflow:visible;"/>
						</clipPath>
						<g class="st101">
							<defs>
								<rect id="SVGID_199_" x="146.27" y="39.89" width="98.14" height="119.94"/>
							</defs>
							<clipPath id="SVGID_200_">
								<use xlink:href="#SVGID_199_"  style="overflow:visible;"/>
							</clipPath>
							<rect x="175.98" y="70.77" class="st102" width="48.02" height="60.52"/>
						</g>
					</g>
					<g class="st70">
						<defs>
							<path id="SVGID_201_" d="M197.5,108.97c0,0,1.11,1.1,1.11-0.38v-3.84h12.83c0,0,0.55,0.02,0.55-0.65v-5.86
								c0-0.97-0.63-0.79-0.63-0.79h-13.02v-4.16c0-1.22-1.05-0.1-1.05-0.1l-8.96,7.38c0,0-0.71,0.61-0.06,1.24
								C189.14,102.67,197.5,108.97,197.5,108.97"/>
						</defs>
						<clipPath id="SVGID_202_">
							<use xlink:href="#SVGID_201_"  style="overflow:visible;"/>
						</clipPath>
						<g class="st103">
							<defs>
								<rect id="SVGID_203_" x="146.27" y="39.89" width="98.14" height="119.94"/>
							</defs>
							<clipPath id="SVGID_204_">
								<use xlink:href="#SVGID_203_"  style="overflow:visible;"/>
							</clipPath>
							<rect x="183.45" y="88.17" class="st104" width="33.08" height="25.74"/>
						</g>
					</g>
				</g>
			</g>
		</g>
	</g>
</g>
<g>
</g>
<g>
</g>
<g>
</g>
<g>
</g>
<g>
</g>
<g>
</g>
<g>
</g>
<g>
</g>
<g>
</g>
<g>
</g>
<g>
</g>
<g>
</g>
<g>
</g>
<g>
</g>
<g>
</g>
</svg>
