<?xml version="1.0" encoding="utf-8"?>
<!-- Generator: Adobe Illustrator 21.0.2, SVG Export Plug-In . SVG Version: 6.00 Build 0)  -->
<svg version="1.1" id="Layer_4" xmlns="http://www.w3.org/2000/svg" xmlns:xlink="http://www.w3.org/1999/xlink" x="0px" y="0px"
	 width="250px" height="200px" viewBox="0 0 250 200" style="enable-background:new 0 0 250 200;" xml:space="preserve">
<style type="text/css">
	.st0{fill:none;stroke:#DCE0DF;stroke-width:2;stroke-miterlimit:10;}
	.st1{fill:none;stroke:#DCE0DF;stroke-width:2;stroke-miterlimit:10;stroke-dasharray:2.9416,2.9416,2.9416,2.9416;}
	.st2{fill:none;stroke:#DCE0DF;stroke-width:2;stroke-miterlimit:10;stroke-dasharray:2.9416,2.9416,2.9416,2.9416,2.9416,2.9416;}
	.st3{fill:none;stroke:#DCE0DF;stroke-width:2;stroke-miterlimit:10;stroke-dasharray:4.6176,4.6176,4.6176,4.6176;}
	.st4{fill:none;stroke:#DCE0DF;stroke-width:2;stroke-miterlimit:10;stroke-dasharray:4.6176,4.6176,4.6176,4.6176,4.6176,4.6176;}
	.st5{fill:none;stroke:#DCE0DF;stroke-width:2;stroke-miterlimit:10;stroke-dasharray:5.184,5.184,5.184,5.184;}
	.st6{fill:none;stroke:#DCE0DF;stroke-width:2;stroke-miterlimit:10;stroke-dasharray:5.184,5.184,5.184,5.184,5.184,5.184;}
	.st7{fill:none;stroke:#DCE0DF;stroke-width:2;stroke-miterlimit:10;stroke-dasharray:5.6037,5.6037,5.6037,5.6037;}
	.st8{fill:none;stroke:#DCE0DF;stroke-width:2;stroke-miterlimit:10;stroke-dasharray:5.6037,5.6037,5.6037,5.6037,5.6037,5.6037;}
	.st9{fill:#999999;}
	.st10{fill:none;stroke:#DCE0DF;stroke-width:2;stroke-miterlimit:10;stroke-dasharray:5.788,5.788,5.788,5.788;}
	.st11{fill:none;stroke:#DCE0DF;stroke-width:2;stroke-miterlimit:10;stroke-dasharray:5.788,5.788,5.788,5.788,5.788,5.788;}
	.st12{clip-path:url(#SVGID_2_);}
	.st13{fill:#160D37;}
	.st14{fill:#FFFFFF;}
	.st15{fill:#DCE0DF;}
	.st16{fill:#B00D23;}
</style>
<g>
	<g>
		<g>
			<g>
				<line class="st0" x1="230.93" y1="170.42" x2="230.93" y2="167.92"/>
				<line class="st1" x1="230.93" y1="164.98" x2="230.93" y2="154.69"/>
				<line class="st2" x1="230.93" y1="153.21" x2="230.93" y2="137.04"/>
				<line class="st0" x1="230.93" y1="135.57" x2="230.93" y2="133.07"/>
			</g>
		</g>
		<g>
			<g>
				<line class="st0" x1="231.54" y1="133.81" x2="229.04" y2="133.81"/>
				<line class="st3" x1="224.42" y1="133.81" x2="208.26" y2="133.81"/>
				<line class="st4" x1="205.95" y1="133.81" x2="180.56" y2="133.81"/>
				<line class="st0" x1="178.25" y1="133.81" x2="175.75" y2="133.81"/>
			</g>
		</g>
	</g>
	<g>
		<g>
			<line class="st0" x1="101.34" y1="42.1" x2="103.84" y2="42.1"/>
			<line class="st5" x1="109.03" y1="42.1" x2="127.17" y2="42.1"/>
			<line class="st6" x1="129.76" y1="42.1" x2="189.38" y2="42.1"/>
			<line class="st0" x1="191.97" y1="42.1" x2="194.47" y2="42.1"/>
		</g>
	</g>
	<g>
		<g>
			<line class="st0" x1="101.6" y1="93.73" x2="101.6" y2="91.23"/>
			<line class="st7" x1="101.6" y1="85.63" x2="101.6" y2="66.02"/>
			<line class="st8" x1="101.6" y1="63.21" x2="101.6" y2="32.39"/>
			<line class="st0" x1="101.6" y1="29.59" x2="101.6" y2="27.09"/>
		</g>
	</g>
	<g>
		<g>
			<line class="st0" x1="25.52" y1="94.75" x2="25.52" y2="92.25"/>
			<line class="st1" x1="25.52" y1="89.31" x2="25.52" y2="79.01"/>
			<line class="st2" x1="25.52" y1="77.54" x2="25.52" y2="61.36"/>
			<line class="st0" x1="25.52" y1="59.89" x2="25.52" y2="57.39"/>
		</g>
	</g>
	<g>
		<path class="st9" d="M5.47,175.9c1.12,1.12,2.93,1.12,4.05,0l7.01-7.01c-1.62-1.04-3.01-2.43-4.05-4.05l-7.01,7.01
			C4.35,172.97,4.35,174.78,5.47,175.9z"/>
		<path class="st9" d="M23.73,169.1c6.33,0,11.46-5.13,11.46-11.46s-5.13-11.46-11.46-11.46c-6.33,0-11.46,5.13-11.46,11.46
			S17.4,169.1,23.73,169.1z M15.14,157.64c0-4.74,3.86-8.6,8.6-8.6c4.74,0,8.6,3.86,8.6,8.6c0,4.74-3.86,8.6-8.6,8.6
			C18.99,166.23,15.14,162.38,15.14,157.64z"/>
		<path class="st9" d="M23.73,150.95v1.91c2.63,0,4.78,2.14,4.78,4.78h1.91C30.42,153.95,27.42,150.95,23.73,150.95z"/>
	</g>
	<g>
		<path class="st9" d="M37.53,95.14l0.28,0.2h0.26v-0.51l0.83-0.08l0.79,0.59h1.29l0.09-0.08c-0.13-0.44-0.28-0.86-0.44-1.28
			l-0.84,0.01l-0.42-0.46l-0.08-0.75l-0.43,0.24l-0.23,0.91l-0.63-0.67l-0.03-0.63l-0.6-0.52l-0.22-0.22h-0.7l0.22,0.62l0.84,0.47
			l0.15,0.16l-0.18,0.09l0.01,0.49l-0.41,0.17l-0.35-0.08l-0.22-0.31l0.57,0.03l0.15-0.21l-1.26-0.85l-0.1-0.36l-0.51,0.46
			l-0.52-0.11l-0.79,1.03l-0.16,0.4l-0.51,0.05l-0.75,0l-0.45-0.21l-0.13-0.89l0.16-0.42l0.76-0.17l0.83,0.17l0.1-0.46l-0.35-0.08
			l0.12-0.72l0.84-0.13l0.59-0.83l0.6-0.1l0.55,0.08h0.2l-0.11-0.78l-0.66,0.27l-0.23-0.58l-0.39-0.05l-0.07-0.4l0.31-0.34
			l0.75-0.29l0.19-0.34c-2.85-2.51-6.6-4.05-10.69-4.05c-3.55,0-6.84,1.15-9.51,3.1l0.82-0.01l0.36,0.2l0.69,0.15l0.05,0.27
			l1.09,0.04l-0.15-0.35L17.92,87l0.23-0.21l-0.08-0.26H17.2l0.96-0.71h0.92l0.43,0.59l0.71,0.04l0.43-0.42l0.32,0.16l-0.59,0.58
			c0,0-0.82,0.01-0.78,0.01c0.04,0,0.07,0.56,0.07,0.56l0.99-0.03l0.11-0.27l0.69-0.04l0.08-0.4l-0.4-0.07l0.13-0.36l0.31-0.09
			l1.08,0.05l-0.59,0.54l0.1,0.42l0.62,0.09l-0.04-0.75l0.59-0.31l1.05-0.12l1.52,0.67v0.58l0.48,0.12l-0.24,0.46h-0.69l-0.2,0.52
			l-1.57-0.37l1.23-0.66l-0.47-0.4l-1.06,0.13l-0.09,0.1l0,0l-0.02,0.02l-0.31,0.32l-0.51,0.04l0.04,0.25l0.18,0.07l-0.01,0.08
			l-0.41,0.06l-0.03,0.24l-0.39,0.02l-0.07-0.47l-0.71,0.21l-1.44,0.84l0.16,0.59l0.4,0.26l0.81,0.11v0.92l0.37-0.06l0.34-0.72
			l0.86-0.27v-1.1l0.48-0.36l1.15,0.27l-0.08,0.73h0.31l0.85-0.42l0.04,0.95l0.62,0.38l-0.03,0.57l-0.59,0.2l0.04,0.19l0.71,0.32
			l-0.01,0.39l-0.21,0.02c0-0.01,0-0.01,0-0.01l-0.9-0.28l-0.04-0.29h0l0.26-0.18v-0.26l-0.28-0.07l-0.07,0.24l-0.5,0.08l-0.05-0.02
			v0.02l-0.17,0.03l-0.14-0.28l-0.16-0.07h-0.35l-0.16,0.13v0.29l0.3,0.1l0.3,0.04l-0.07,0.03l-0.27,0.3l-0.12-0.15l-0.26-0.07
			l-0.72,0.67l0.09,0.08l-1.06,0.59l-1,1.04l-0.07,0.46l-1,0.66l-0.49,0.5l0.05,1l-0.69-0.32l0-0.58l-1.91,0l-0.99,0.5l-0.43,0.79
			l-0.17,0.63l0.28,0.61l0.78,0.1l1.24-0.83l0.11,0.41l-0.38,0.71l0.94,0.16l0.09,1.46l1.29,0.22l0.82-0.95l1,0.2l0.35,0.49
			l0.96-0.06l0.03-0.28l0.53,0.25l0.59,0.93l1.02,0.01l0.38,0.66l0.05,0.81l1.13,0.43l1.43,0.01l0.42,0.68l0.63,0.2l-0.12,0.57
			l-0.69,0.88l-0.2,1.95l-0.63,0.49l-0.93-0.03l-0.31,0.54l0.23,1.01l-1.01,1.29l-0.32,0.59l-0.96,0.46l-0.63,0.1l-0.03,0.27
			l0.44,0.13l-0.05,0.29l-0.4,0.38l0.24,0.3l0.48,0.01l-0.03,0.37l-0.13,0.36l-0.04,0.3l0.71,0.6l-0.09,0.31l-0.96-0.02l-0.96-0.84
			l-0.75-1.31l0.1-1.27l-0.57-0.75l0.23-1.28l-0.34-0.09v-2.77c0,0-0.94-0.71-1-0.71s-0.5-0.12-0.5-0.12l-0.09-0.52l-1.22-1.53
			l0.12-0.55l0.04-0.9l0.85-0.59l-0.12-1.01l-1.24-0.09l-0.97-1.1l-0.69-0.19l-0.44-0.08l0.05-0.4l-0.57-0.08v0.23l-1.41-0.35
			l-0.57-0.87l0.23-0.42l-0.89-1.31l-0.15-0.96h-0.36l0.12,0.93l0.62,0.96l-0.07,0.38l-0.52-0.08l-0.65-1.1v-1.28l-0.67-0.32v-0.92
			c-0.83,1.95-1.29,4.09-1.29,6.34c0,8.93,7.26,16.19,16.19,16.19c5.06,0,9.59-2.34,12.56-5.98h-0.53v-1.08l-0.62-0.83v-1.29
			l-0.47-0.47l-0.04-0.54l0.6-1.14l-1.14-2.01l0.13-1.36l-1.02-0.11l-0.38-0.38h-0.69l-0.35,0.32h-1.21l-0.04,0.11h-0.67l-1.55-1.76
			l0.01-1.37l0.26-0.09l0.1-0.53h-0.36l-0.15-0.55l1.79-1.29v-0.92l0.88-0.49l0.35,0.04h0.72l0.56-0.3l1.82-0.14v0.93L37.53,95.14z
			 M32.99,89.37l0.15-0.23l0.53-0.11l0.13,0.65l0.28,0.46l0.19,0.22l0.34,0.13l-0.32,0.38l-0.63,0.06H33.2l0.05-0.56l0.39-0.08
			l-0.03-0.26l-0.36-0.23l-0.25-0.17L32.99,89.37L32.99,89.37z M32.12,90.37l0.32-0.52l0.44-0.1l0.31,0.13l-0.03,0.35l-0.67,0.47
			h-0.38L32.12,90.37L32.12,90.37z M23.32,92.37l-0.34,0.03L23,92.16l0.15-0.19l0.2,0.16L23.32,92.37z M24.5,91.95l-0.23,0.02
			l-0.05,0.22l-0.18,0.11l-0.28,0.02c-0.01-0.07-0.02-0.12-0.02-0.12h-0.11v-0.24h0.46l0.1-0.25l0.18,0l0.21,0.04L24.5,91.95z"/>
	</g>
	<g>
		<g>
			<circle class="st9" cx="200.68" cy="38.51" r="1.35"/>
			<circle class="st9" cx="209.25" cy="43.98" r="1.35"/>
			<path class="st9" d="M220.36,43.02l-0.49-0.67c-0.53-0.73-0.54-1.71-0.02-2.45l0.48-0.67c0.73-1.03,0.39-2.46-0.73-3.07
				l-0.73-0.39c-0.79-0.42-1.23-1.31-1.08-2.2l0.14-0.81c0.21-1.24-0.72-2.39-1.98-2.44l-0.83-0.03c-0.9-0.04-1.68-0.65-1.93-1.51
				l-0.23-0.79c-0.35-1.22-1.68-1.84-2.85-1.34l-0.76,0.32c-0.83,0.36-1.79,0.15-2.39-0.53l-0.55-0.61
				c-0.84-0.94-2.31-0.93-3.14,0.03l-0.54,0.62c-0.59,0.68-1.55,0.91-2.39,0.56l-0.77-0.32c-1.17-0.48-2.49,0.17-2.83,1.39
				l-0.22,0.8c-0.24,0.87-1,1.49-1.9,1.54l-0.83,0.05c-1.26,0.07-2.17,1.24-1.94,2.48l0.15,0.81c0.17,0.89-0.26,1.78-1.04,2.21
				l-0.72,0.4c-1.1,0.61-1.42,2.05-0.67,3.07l0.49,0.67c0.53,0.73,0.54,1.71,0.02,2.45l-0.48,0.67c-0.73,1.03-0.39,2.46,0.73,3.07
				l0.73,0.39c0.79,0.42,1.23,1.31,1.08,2.2L192,49.72c-0.21,1.24,0.72,2.39,1.98,2.44l0.83,0.03c0.9,0.04,1.68,0.65,1.93,1.51
				l0.23,0.79c0.35,1.22,1.68,1.84,2.85,1.34l0.76-0.32c0.83-0.36,1.79-0.15,2.39,0.53l0.55,0.61c0.85,0.94,2.32,0.93,3.14-0.03
				l0.54-0.62c0.59-0.68,1.55-0.91,2.39-0.56l0.77,0.32c1.17,0.48,2.49-0.17,2.83-1.39l0.22-0.8c0.24-0.87,1-1.49,1.9-1.54
				l0.83-0.05c1.26-0.07,2.17-1.24,1.94-2.48l-0.15-0.81c-0.17-0.89,0.26-1.78,1.04-2.21l0.72-0.4
				C220.79,45.49,221.11,44.05,220.36,43.02z M197.43,38.51c0-1.8,1.45-3.25,3.25-3.25c1.8,0,3.25,1.45,3.25,3.25
				s-1.45,3.25-3.25,3.25C198.88,41.76,197.43,40.3,197.43,38.51z M201.31,46.89c-0.28,0.34-0.78,0.38-1.12,0.11l0,0
				c-0.34-0.28-0.38-0.78-0.11-1.12l8.53-10.27c0.28-0.34,0.78-0.38,1.12-0.11c0.34,0.28,0.38,0.78,0.11,1.12L201.31,46.89z
				 M209.25,47.23c-1.8,0-3.25-1.45-3.25-3.25c0-1.8,1.45-3.25,3.25-3.25s3.25,1.45,3.25,3.25
				C212.5,45.77,211.04,47.23,209.25,47.23z"/>
		</g>
	</g>
	<g>
		<polygon class="st9" points="245.37,170.44 243.68,170.44 243.68,154.39 216.37,154.39 216.37,152.7 245.37,152.7 		"/>
		<polygon class="st9" points="217.35,177.2 217.35,172.97 221.58,172.97 		"/>
		<path class="st9" d="M213.83,156.08v16.89h28.16v-16.89H213.83z M227.91,168.75h-10.56v-1.69h10.56L227.91,168.75L227.91,168.75z
			 M238.47,165.37h-21.12v-1.69h21.12V165.37L238.47,165.37z M238.47,161.99h-21.12v-1.69h21.12V161.99L238.47,161.99z"/>
	</g>
	<g>
		<g>
			<line class="st0" x1="25.14" y1="149.32" x2="25.14" y2="146.82"/>
			<line class="st1" x1="25.14" y1="143.88" x2="25.14" y2="133.58"/>
			<line class="st2" x1="25.14" y1="132.11" x2="25.14" y2="115.93"/>
			<line class="st0" x1="25.14" y1="114.46" x2="25.14" y2="111.96"/>
		</g>
	</g>
	<g>
		<g>
			<line class="st0" x1="24.92" y1="57.1" x2="27.42" y2="57.1"/>
			<line class="st10" x1="33.21" y1="57.1" x2="53.46" y2="57.1"/>
			<line class="st11" x1="56.36" y1="57.1" x2="88.19" y2="57.1"/>
			<line class="st0" x1="91.09" y1="57.1" x2="93.59" y2="57.1"/>
		</g>
	</g>
	<g>
		<path class="st9" d="M97.14,16.08c-0.77,0-0.77,1.19,0,1.19h9.17c0.77,0,0.77-1.19,0-1.19H97.14z M97.14,16.08"/>
		<path class="st9" d="M106.3,18.9h-9.17c-0.77,0-0.77,1.19,0,1.19h9.17C107.07,20.09,107.07,18.9,106.3,18.9L106.3,18.9z
			 M106.3,18.9"/>
		<path class="st9" d="M106.3,21.51h-9.17c-0.77,0-0.77,1.19,0,1.19h9.17C107.07,22.7,107.07,21.51,106.3,21.51L106.3,21.51z
			 M106.3,21.51"/>
		<path class="st9" d="M106.3,24.32h-9.17c-0.77,0-0.77,1.19,0,1.19h9.17C107.07,25.51,107.07,24.32,106.3,24.32L106.3,24.32z
			 M106.3,24.32"/>
		<path class="st9" d="M106.13,26.98h-9.17c-0.77,0-0.77,1.19,0,1.19h9.17C106.9,28.17,106.9,26.98,106.13,26.98L106.13,26.98z
			 M106.13,26.98"/>
		<path class="st9" d="M93.16,9.98v22.23h17.12V13.07l-3.18-3.08H93.16z M108.8,30.73H94.64V11.46h11.69v2.35h2.46V30.73z
			 M108.8,30.73"/>
		<path class="st9" d="M96.06,6.58v2.57h1.48V8.05h11.69v2.35h2.46v16.92h-0.65v1.48h2.13V9.66l-3.18-3.08H96.06z M96.06,6.58"/>
		<path class="st9" d="M113.03,3.48H99.1v2.57h1.48V4.96h11.69v2.35h2.46v16.92h-0.65v1.48h2.13V6.56L113.03,3.48z M113.03,3.48"/>
	</g>
	<g>
		<defs>
			<rect id="SVGID_1_" x="39.38" y="56.44" width="172.97" height="138.39"/>
		</defs>
		<clipPath id="SVGID_2_">
			<use xlink:href="#SVGID_1_"  style="overflow:visible;"/>
		</clipPath>
		<g class="st12">
			<circle class="st13" cx="125.87" cy="142.49" r="84.7"/>
			<path class="st14" d="M70.81,78.84h110.12h16.39c1.99,0,3.61,1.63,3.61,3.61v21.49v78.5c-31.62,60.35-118.51,60.35-150.13,0
				v-78.5V82.45c0-1.99,1.63-3.61,3.61-3.61L70.81,78.84L70.81,78.84z"/>
			<path class="st15" d="M103.85,104.1h83.97v1.65h-83.97V104.1z M103.85,112.15h59.48v1.65h-59.48V112.15z M103.85,108.13h83.97
				v1.65h-83.97V108.13z"/>
			<path class="st16" d="M58.93,97.07h35.05v24.89H58.93V97.07z"/>
			<path class="st9" d="M54.42,78.14h142.91c1.99,0,3.61,1.63,3.61,3.61v7.22H50.81v-7.22C50.81,79.76,52.43,78.14,54.42,78.14
				L54.42,78.14z"/>
			<path class="st14" d="M117.64,81.88h72.52c0.54,0,0.97,0.43,0.97,0.97v1.8c0,0.54-0.43,0.97-0.97,0.97h-72.52
				c-0.54,0-0.97-0.43-0.97-0.97v-1.8C116.67,82.31,117.11,81.88,117.64,81.88z"/>
			<circle class="st13" cx="58.01" cy="83.32" r="2.08"/>
			<circle class="st15" cx="66.22" cy="83.32" r="2.08"/>
			<circle class="st16" cx="74.43" cy="83.32" r="2.08"/>
			<path class="st15" d="M104.55,139.45h83.97v1.65h-83.97V139.45z M104.55,147.5h59.48v1.65h-59.48V147.5z M104.55,143.48h83.97
				v1.65h-83.97V143.48z"/>
			<path class="st15" d="M104.9,174.8h83.97v1.65H104.9V174.8z M104.9,182.85h59.48v1.65H104.9V182.85z M104.9,178.83h83.97v1.65
				H104.9V178.83z"/>
			<g>
				<path class="st14" d="M81.82,115.75h-8.46c-0.47,0-0.85-0.38-0.85-0.85c0-0.47,0.38-0.85,0.85-0.85h8.46
					c0.47,0,0.85,0.38,0.85,0.85C82.67,115.37,82.29,115.75,81.82,115.75L81.82,115.75z M81.82,115.75"/>
				<path class="st14" d="M83.52,114.9c0,0.94-0.76,1.69-1.69,1.69c-0.93,0-1.69-0.76-1.69-1.69c0-0.93,0.76-1.69,1.69-1.69
					C82.76,113.21,83.52,113.97,83.52,114.9L83.52,114.9z M83.52,114.9"/>
				<path class="st14" d="M82.73,105.59l-11.85-0.85c-0.27-0.02-0.54,0.1-0.72,0.31c-0.17,0.21-0.23,0.5-0.16,0.77l1.69,5.92
					c0.1,0.36,0.44,0.61,0.81,0.61h8.46c1.4,0,2.54-1.14,2.54-2.54v-3.39C83.52,105.99,83.17,105.63,82.73,105.59L82.73,105.59z
					 M82.73,105.59"/>
				<path class="st14" d="M83.52,104.74H71.12l-0.34-1.1c0-0.01-0.02-0.02-0.02-0.04c-0.02-0.06-0.05-0.1-0.08-0.15
					c-0.03-0.04-0.05-0.09-0.09-0.13c-0.04-0.04-0.08-0.07-0.12-0.1c-0.04-0.03-0.09-0.07-0.14-0.09c-0.04-0.02-0.09-0.03-0.14-0.04
					c-0.06-0.02-0.12-0.03-0.18-0.04c-0.01,0-0.03-0.01-0.04-0.01h-1.69c-0.47,0-0.85,0.38-0.85,0.85s0.38,0.85,0.85,0.85h1.07
					l3.2,10.4c0.11,0.36,0.45,0.6,0.81,0.6c0.08,0,0.17-0.01,0.25-0.04c0.45-0.14,0.7-0.61,0.56-1.06l-2.53-8.21h11.87
					c0.47,0,0.85-0.38,0.85-0.85C84.36,105.12,83.98,104.74,83.52,104.74L83.52,104.74z M83.52,104.74"/>
				<path class="st14" d="M74.21,114.9c0,0.94-0.76,1.69-1.69,1.69c-0.93,0-1.69-0.76-1.69-1.69c0-0.93,0.76-1.69,1.69-1.69
					C73.45,113.21,74.21,113.97,74.21,114.9L74.21,114.9z M74.21,114.9"/>
			</g>
			<path class="st16" d="M59.4,130.9h35.05v24.89H59.4V130.9z"/>
			<g>
				<path class="st14" d="M82.29,149.58h-8.46c-0.47,0-0.85-0.38-0.85-0.85c0-0.47,0.38-0.85,0.85-0.85h8.46
					c0.47,0,0.85,0.38,0.85,0.85C83.14,149.2,82.76,149.58,82.29,149.58L82.29,149.58z M82.29,149.58"/>
				<path class="st14" d="M83.98,148.73c0,0.93-0.76,1.69-1.69,1.69c-0.93,0-1.69-0.76-1.69-1.69c0-0.93,0.76-1.69,1.69-1.69
					C83.22,147.04,83.98,147.8,83.98,148.73L83.98,148.73z M83.98,148.73"/>
				<path class="st14" d="M83.2,139.43l-11.85-0.85c-0.27-0.02-0.54,0.1-0.72,0.31c-0.17,0.21-0.23,0.5-0.16,0.77l1.69,5.92
					c0.1,0.36,0.44,0.61,0.81,0.61h8.46c1.4,0,2.54-1.14,2.54-2.54v-3.39C83.98,139.83,83.64,139.46,83.2,139.43L83.2,139.43z
					 M83.2,139.43"/>
				<path class="st14" d="M83.98,138.58H71.59l-0.34-1.1c0-0.01-0.02-0.02-0.02-0.04c-0.02-0.06-0.05-0.1-0.08-0.15
					c-0.03-0.04-0.05-0.09-0.09-0.13c-0.04-0.04-0.08-0.07-0.12-0.1c-0.04-0.03-0.09-0.07-0.14-0.09c-0.04-0.02-0.09-0.03-0.14-0.04
					c-0.06-0.02-0.12-0.03-0.18-0.04c-0.01,0-0.03-0.01-0.04-0.01h-1.69c-0.47,0-0.85,0.38-0.85,0.85c0,0.47,0.38,0.85,0.85,0.85
					h1.07l3.2,10.4c0.11,0.36,0.45,0.6,0.81,0.6c0.08,0,0.17-0.01,0.25-0.04c0.45-0.14,0.7-0.61,0.56-1.06l-2.53-8.21h11.87
					c0.47,0,0.85-0.38,0.85-0.85C84.83,138.96,84.45,138.58,83.98,138.58L83.98,138.58z M83.98,138.58"/>
				<path class="st14" d="M74.67,148.73c0,0.93-0.76,1.69-1.69,1.69c-0.93,0-1.69-0.76-1.69-1.69c0-0.93,0.76-1.69,1.69-1.69
					C73.92,147.04,74.67,147.8,74.67,148.73L74.67,148.73z M74.67,148.73"/>
			</g>
			<path class="st16" d="M59.63,164.96h35.05v24.89H59.63V164.96z"/>
			<g>
				<path class="st14" d="M82.52,183.64h-8.46c-0.47,0-0.85-0.38-0.85-0.85c0-0.47,0.38-0.85,0.85-0.85h8.46
					c0.47,0,0.85,0.38,0.85,0.85C83.37,183.27,82.99,183.64,82.52,183.64L82.52,183.64z M82.52,183.64"/>
				<path class="st14" d="M84.22,182.8c0,0.93-0.76,1.69-1.69,1.69c-0.93,0-1.69-0.76-1.69-1.69c0-0.93,0.76-1.69,1.69-1.69
					C83.46,181.11,84.22,181.86,84.22,182.8L84.22,182.8z M84.22,182.8"/>
				<path class="st14" d="M83.43,173.49l-11.85-0.85c-0.27-0.02-0.54,0.1-0.72,0.31c-0.17,0.21-0.23,0.5-0.16,0.77l1.69,5.92
					c0.1,0.36,0.44,0.61,0.81,0.61h8.46c1.4,0,2.54-1.14,2.54-2.54v-3.39C84.22,173.89,83.87,173.52,83.43,173.49L83.43,173.49z
					 M83.43,173.49"/>
				<path class="st14" d="M84.22,172.64H71.82l-0.34-1.1c0-0.01-0.02-0.02-0.02-0.04c-0.02-0.06-0.05-0.1-0.08-0.15
					c-0.03-0.04-0.05-0.09-0.09-0.13c-0.04-0.04-0.08-0.07-0.12-0.1c-0.04-0.03-0.09-0.07-0.14-0.09c-0.04-0.02-0.09-0.03-0.14-0.04
					c-0.06-0.02-0.12-0.03-0.18-0.04c-0.01,0-0.03-0.01-0.04-0.01h-1.69c-0.47,0-0.85,0.38-0.85,0.85c0,0.47,0.38,0.85,0.85,0.85
					h1.07l3.2,10.4c0.11,0.36,0.45,0.6,0.81,0.6c0.08,0,0.17-0.01,0.25-0.04c0.45-0.14,0.7-0.61,0.56-1.06l-2.53-8.21h11.87
					c0.47,0,0.85-0.38,0.85-0.85C85.06,173.02,84.68,172.64,84.22,172.64L84.22,172.64z M84.22,172.64"/>
				<path class="st14" d="M74.91,182.8c0,0.93-0.76,1.69-1.69,1.69c-0.93,0-1.69-0.76-1.69-1.69c0-0.93,0.76-1.69,1.69-1.69
					C74.15,181.11,74.91,181.86,74.91,182.8L74.91,182.8z M74.91,182.8"/>
			</g>
		</g>
	</g>
</g>
<g>
</g>
<g>
</g>
<g>
</g>
<g>
</g>
<g>
</g>
<g>
</g>
<g>
</g>
<g>
</g>
<g>
</g>
<g>
</g>
<g>
</g>
<g>
</g>
<g>
</g>
<g>
</g>
<g>
</g>
</svg>
