<?xml version="1.0" encoding="utf-8"?>
<!-- Generator: Adobe Illustrator 21.0.2, SVG Export Plug-In . SVG Version: 6.00 Build 0)  -->
<svg version="1.1" id="Layer_7" xmlns="http://www.w3.org/2000/svg" xmlns:xlink="http://www.w3.org/1999/xlink" x="0px" y="0px"
	 width="250px" height="200px" viewBox="0 0 250 200" style="enable-background:new 0 0 250 200;" xml:space="preserve">
<style type="text/css">
	.st0{clip-path:url(#SVGID_2_);}
	.st1{clip-path:url(#SVGID_4_);fill:#160D37;}
	.st2{clip-path:url(#SVGID_6_);}
	.st3{clip-path:url(#SVGID_8_);fill:#1E1348;}
	.st4{clip-path:url(#SVGID_10_);}
	.st5{clip-path:url(#SVGID_12_);fill:#B00D23;}
	.st6{clip-path:url(#SVGID_14_);}
	.st7{clip-path:url(#SVGID_16_);fill:#1E1348;}
	.st8{clip-path:url(#SVGID_18_);}
	.st9{clip-path:url(#SVGID_20_);fill:#B00D23;}
	.st10{clip-path:url(#SVGID_22_);}
	.st11{clip-path:url(#SVGID_24_);fill:#1E1348;}
	.st12{clip-path:url(#SVGID_26_);}
	.st13{clip-path:url(#SVGID_28_);fill:#B00D23;}
	.st14{clip-path:url(#SVGID_30_);}
	.st15{clip-path:url(#SVGID_32_);fill:#1E1348;}
	.st16{clip-path:url(#SVGID_34_);}
	.st17{clip-path:url(#SVGID_36_);fill:#B00D23;}
	.st18{clip-path:url(#SVGID_38_);}
	.st19{clip-path:url(#SVGID_40_);fill:#1E1348;}
	.st20{clip-path:url(#SVGID_42_);}
	.st21{clip-path:url(#SVGID_44_);fill:#B00D23;}
	.st22{clip-path:url(#SVGID_46_);}
	.st23{clip-path:url(#SVGID_48_);fill:#1E1348;}
	.st24{clip-path:url(#SVGID_50_);}
	.st25{clip-path:url(#SVGID_52_);fill:#B00D23;}
	.st26{clip-path:url(#SVGID_54_);}
	.st27{clip-path:url(#SVGID_56_);fill:#1E1348;}
	.st28{clip-path:url(#SVGID_58_);}
	.st29{clip-path:url(#SVGID_60_);fill:#B00D23;}
	.st30{clip-path:url(#SVGID_62_);}
	.st31{clip-path:url(#SVGID_64_);fill:#1E1348;}
	.st32{clip-path:url(#SVGID_66_);}
	.st33{clip-path:url(#SVGID_68_);fill:#B00D23;}
	.st34{clip-path:url(#SVGID_70_);}
	.st35{clip-path:url(#SVGID_72_);fill:#1E1348;}
	.st36{clip-path:url(#SVGID_74_);}
	.st37{clip-path:url(#SVGID_76_);fill:#B00D23;}
	.st38{clip-path:url(#SVGID_78_);}
	.st39{clip-path:url(#SVGID_80_);fill:#1E1348;}
	.st40{clip-path:url(#SVGID_82_);}
	.st41{clip-path:url(#SVGID_84_);fill:#B00D23;}
	.st42{clip-path:url(#SVGID_86_);}
	.st43{clip-path:url(#SVGID_88_);fill:#1E1348;}
	.st44{clip-path:url(#SVGID_90_);}
	.st45{clip-path:url(#SVGID_92_);fill:#B00D23;}
	.st46{clip-path:url(#SVGID_94_);}
	.st47{clip-path:url(#SVGID_96_);fill:#FFFFFF;}
	.st48{clip-path:url(#SVGID_98_);}
	.st49{clip-path:url(#SVGID_100_);fill:#FFFFFF;}
	.st50{clip-path:url(#SVGID_102_);}
	.st51{clip-path:url(#SVGID_104_);fill:#FFFFFF;}
	.st52{clip-path:url(#SVGID_106_);}
	.st53{clip-path:url(#SVGID_108_);fill:#FFFFFF;}
	.st54{clip-path:url(#SVGID_110_);}
	.st55{clip-path:url(#SVGID_112_);fill:#FFFFFF;}
	.st56{clip-path:url(#SVGID_114_);}
	.st57{clip-path:url(#SVGID_116_);fill:#FFFFFF;}
	.st58{clip-path:url(#SVGID_118_);}
	.st59{clip-path:url(#SVGID_120_);fill:#FFFFFF;}
	.st60{clip-path:url(#SVGID_122_);}
	.st61{clip-path:url(#SVGID_124_);fill:#FFFFFF;}
	.st62{clip-path:url(#SVGID_126_);}
	.st63{clip-path:url(#SVGID_128_);fill:#FFFFFF;}
	.st64{clip-path:url(#SVGID_130_);}
	.st65{clip-path:url(#SVGID_132_);fill:#FFFFFF;}
	.st66{clip-path:url(#SVGID_134_);}
	.st67{clip-path:url(#SVGID_136_);fill:#FFFFFF;}
	.st68{clip-path:url(#SVGID_138_);}
	.st69{clip-path:url(#SVGID_140_);fill:#FFFFFF;}
	.st70{clip-path:url(#SVGID_142_);}
	.st71{clip-path:url(#SVGID_144_);fill:#FFFFFF;}
	.st72{clip-path:url(#SVGID_146_);}
	.st73{clip-path:url(#SVGID_148_);fill:#FFFFFF;}
	.st74{clip-path:url(#SVGID_150_);}
	.st75{clip-path:url(#SVGID_152_);fill:#FFFFFF;}
	.st76{clip-path:url(#SVGID_154_);}
	.st77{clip-path:url(#SVGID_156_);fill:#FFFFFF;}
	.st78{clip-path:url(#SVGID_158_);}
	.st79{clip-path:url(#SVGID_160_);fill:#FFFFFF;}
	.st80{clip-path:url(#SVGID_162_);}
	.st81{clip-path:url(#SVGID_164_);fill:#FFFFFF;}
	.st82{clip-path:url(#SVGID_166_);}
	.st83{clip-path:url(#SVGID_168_);fill:#FFFFFF;}
	.st84{clip-path:url(#SVGID_170_);}
	.st85{clip-path:url(#SVGID_172_);fill:#FFFFFF;}
	.st86{clip-path:url(#SVGID_174_);}
	.st87{clip-path:url(#SVGID_176_);fill:#FFFFFF;}
	.st88{clip-path:url(#SVGID_178_);}
	.st89{clip-path:url(#SVGID_180_);fill:#FFFFFF;}
	.st90{clip-path:url(#SVGID_182_);}
	.st91{clip-path:url(#SVGID_184_);fill:#FFFFFF;}
	.st92{clip-path:url(#SVGID_186_);}
	.st93{clip-path:url(#SVGID_188_);fill:#FFFFFF;}
	.st94{clip-path:url(#SVGID_190_);}
	.st95{clip-path:url(#SVGID_192_);fill:#FFFFFF;}
	.st96{clip-path:url(#SVGID_194_);}
	.st97{clip-path:url(#SVGID_196_);fill:#FFFFFF;}
	.st98{clip-path:url(#SVGID_198_);}
	.st99{clip-path:url(#SVGID_200_);fill:#FFFFFF;}
	.st100{clip-path:url(#SVGID_202_);}
	.st101{clip-path:url(#SVGID_204_);fill:#FFFFFF;}
</style>
<g>
	<g>
		<defs>
			<path id="SVGID_1_" d="M220.25,100.08c0.58-52.39-41.67-95.45-94.19-96.03c-52.54-0.58-95.74,41.55-96.32,93.9
				c-0.45,40.58,24.99,76.98,63.33,90.55c0.85,0.3,1.78,0.26,2.6-0.13c0.8-0.39,1.42-1.07,1.72-1.94c0.63-1.69-0.33-3.71-2.04-4.31
				c-35.58-12.62-59.23-46.4-58.81-84.1c0.54-48.63,40.67-87.74,89.45-87.21c48.78,0.54,88.01,40.53,87.47,89.15
				c-0.34,30.95-16.31,58.77-42.82,74.62l0.24-5.56c0.02-2.17-0.87-2.86-1.4-3.11c-0.55-0.24-1.74-0.41-3.46,1.18l-18.51,17.31
				c-0.96,0.92-1.48,1.86-1.49,2.71c-0.01,0.54,0.22,2.28,3.4,2.42l25.36,1.13c1.32,0.04,2.36-0.21,2.95-0.79
				c1-0.94,0.75-2.48-0.72-4.06l-4.35-4.6C202.1,164.3,219.88,134.01,220.25,100.08"/>
		</defs>
		<clipPath id="SVGID_2_">
			<use xlink:href="#SVGID_1_"  style="overflow:visible;"/>
		</clipPath>
		<g class="st0">
			<defs>
				<rect id="SVGID_3_" x="-56.54" y="-2277.84" width="363.5" height="4705.13"/>
			</defs>
			<clipPath id="SVGID_4_">
				<use xlink:href="#SVGID_3_"  style="overflow:visible;"/>
			</clipPath>
			<rect x="24.89" y="-0.8" class="st1" width="200.21" height="196.33"/>
		</g>
	</g>
	<g>
		<defs>
			<path id="SVGID_5_" d="M125.15,195.96c-0.81,0-1.35-0.49-1.35-1.23V54.6c0-0.74,0.54-1.23,1.35-1.23c0.81,0,1.35,0.49,1.35,1.23
				v140.12C126.5,195.47,125.69,195.96,125.15,195.96"/>
		</defs>
		<clipPath id="SVGID_6_">
			<use xlink:href="#SVGID_5_"  style="overflow:visible;"/>
		</clipPath>
		<g class="st2">
			<defs>
				<rect id="SVGID_7_" x="-56.54" y="-2069.41" width="363.5" height="4284.45"/>
			</defs>
			<clipPath id="SVGID_8_">
				<use xlink:href="#SVGID_7_"  style="overflow:visible;"/>
			</clipPath>
			<rect x="118.95" y="48.96" class="st3" width="12.4" height="151.41"/>
		</g>
	</g>
	<g>
		<defs>
			<path id="SVGID_9_" d="M132.19,47.71c0,3.88-3.15,7.02-7.04,7.02c-3.89,0-7.04-3.14-7.04-7.02c0-3.88,3.15-7.02,7.04-7.02
				C129.04,40.69,132.19,43.83,132.19,47.71"/>
		</defs>
		<clipPath id="SVGID_10_">
			<use xlink:href="#SVGID_9_"  style="overflow:visible;"/>
		</clipPath>
		<g class="st4">
			<defs>
				<rect id="SVGID_11_" x="-56.54" y="-2277.84" width="363.5" height="4705.13"/>
			</defs>
			<clipPath id="SVGID_12_">
				<use xlink:href="#SVGID_11_"  style="overflow:visible;"/>
			</clipPath>
			<rect x="113.26" y="35.84" class="st5" width="23.78" height="23.73"/>
		</g>
	</g>
	<g>
		<defs>
			<path id="SVGID_13_" d="M124.61,101.97c-0.54,0-1.08-0.27-1.08-0.81L108.09,72c-0.27-0.54,0-1.35,0.54-1.89
				c0.54-0.27,1.35,0,1.9,0.54l15.44,29.16c0.27,0.54,0,1.35-0.54,1.89C125.15,101.97,124.88,101.97,124.61,101.97"/>
		</defs>
		<clipPath id="SVGID_14_">
			<use xlink:href="#SVGID_13_"  style="overflow:visible;"/>
		</clipPath>
		<g class="st6">
			<defs>
				<rect id="SVGID_15_" x="-56.54" y="-2277.84" width="363.5" height="4705.13"/>
			</defs>
			<clipPath id="SVGID_16_">
				<use xlink:href="#SVGID_15_"  style="overflow:visible;"/>
			</clipPath>
			<rect x="103.14" y="65.16" class="st7" width="27.78" height="41.66"/>
		</g>
	</g>
	<g>
		<defs>
			<path id="SVGID_17_" d="M111.88,66.87c0,2.83-2.3,5.13-5.15,5.13c-2.84,0-5.14-2.3-5.14-5.13c0-2.83,2.3-5.13,5.14-5.13
				C109.58,61.75,111.88,64.04,111.88,66.87"/>
		</defs>
		<clipPath id="SVGID_18_">
			<use xlink:href="#SVGID_17_"  style="overflow:visible;"/>
		</clipPath>
		<g class="st8">
			<defs>
				<rect id="SVGID_19_" x="-56.54" y="-2277.84" width="363.5" height="4705.13"/>
			</defs>
			<clipPath id="SVGID_20_">
				<use xlink:href="#SVGID_19_"  style="overflow:visible;"/>
			</clipPath>
			<rect x="96.75" y="56.9" class="st9" width="19.98" height="19.95"/>
		</g>
	</g>
	<g>
		<defs>
			<path id="SVGID_21_" d="M123.53,102.24c-0.27,0-0.54,0-0.81-0.27L72.35,65.79c-0.54-0.54-0.81-1.35-0.27-1.89
				c0.54-0.54,1.36-0.81,1.9-0.27l50.37,36.18c0.54,0.54,0.81,1.35,0.27,1.89C124.34,101.97,124.07,102.24,123.53,102.24"/>
		</defs>
		<clipPath id="SVGID_22_">
			<use xlink:href="#SVGID_21_"  style="overflow:visible;"/>
		</clipPath>
		<g class="st10">
			<defs>
				<rect id="SVGID_23_" x="-56.54" y="-2277.84" width="363.5" height="4705.13"/>
			</defs>
			<clipPath id="SVGID_24_">
				<use xlink:href="#SVGID_23_"  style="overflow:visible;"/>
			</clipPath>
			<rect x="66.93" y="58.49" class="st11" width="62.82" height="48.59"/>
		</g>
	</g>
	<g>
		<defs>
			<path id="SVGID_25_" d="M74.24,60.93c0,3.73-3.03,6.75-6.77,6.75c-3.74,0-6.77-3.02-6.77-6.75s3.03-6.75,6.77-6.75
				C71.21,54.19,74.24,57.21,74.24,60.93"/>
		</defs>
		<clipPath id="SVGID_26_">
			<use xlink:href="#SVGID_25_"  style="overflow:visible;"/>
		</clipPath>
		<g class="st12">
			<defs>
				<rect id="SVGID_27_" x="-56.54" y="-2277.84" width="363.5" height="4705.13"/>
			</defs>
			<clipPath id="SVGID_28_">
				<use xlink:href="#SVGID_27_"  style="overflow:visible;"/>
			</clipPath>
			<rect x="55.85" y="49.34" class="st13" width="23.23" height="23.19"/>
		</g>
	</g>
	<g>
		<defs>
			<path id="SVGID_29_" d="M87.78,123.3c-0.54,0-0.81-0.27-1.08-0.81c-0.27-0.54,0-1.35,0.54-1.89l37.37-20.79
				c0.54-0.27,1.36,0,1.9,0.54c0.27,0.54,0,1.35-0.54,1.89l-37.37,20.79C88.32,123.3,88.05,123.3,87.78,123.3"/>
		</defs>
		<clipPath id="SVGID_30_">
			<use xlink:href="#SVGID_29_"  style="overflow:visible;"/>
		</clipPath>
		<g class="st14">
			<defs>
				<rect id="SVGID_31_" x="-56.54" y="-2277.84" width="363.5" height="4705.13"/>
			</defs>
			<clipPath id="SVGID_32_">
				<use xlink:href="#SVGID_31_"  style="overflow:visible;"/>
			</clipPath>
			<rect x="81.75" y="94.86" class="st15" width="49.71" height="33.29"/>
		</g>
	</g>
	<g>
		<defs>
			<path id="SVGID_33_" d="M88.59,125.19c0,3.73-3.03,6.75-6.77,6.75c-3.74,0-6.77-3.02-6.77-6.75c0-3.73,3.03-6.75,6.77-6.75
				C85.56,118.44,88.59,121.46,88.59,125.19"/>
		</defs>
		<clipPath id="SVGID_34_">
			<use xlink:href="#SVGID_33_"  style="overflow:visible;"/>
		</clipPath>
		<g class="st16">
			<defs>
				<rect id="SVGID_35_" x="-56.54" y="-2277.84" width="363.5" height="4705.13"/>
			</defs>
			<clipPath id="SVGID_36_">
				<use xlink:href="#SVGID_35_"  style="overflow:visible;"/>
			</clipPath>
			<rect x="70.21" y="113.59" class="st17" width="23.23" height="23.19"/>
		</g>
	</g>
	<g>
		<defs>
			<path id="SVGID_37_" d="M123.53,103.32C123.26,103.32,123.26,103.32,123.53,103.32l-27.35-2.7c-0.81,0-1.35-0.81-1.08-1.35
				c0-0.81,0.81-1.35,1.35-1.08l27.08,2.7c0.81,0,1.35,0.81,1.08,1.35C124.61,102.78,124.07,103.32,123.53,103.32"/>
		</defs>
		<clipPath id="SVGID_38_">
			<use xlink:href="#SVGID_37_"  style="overflow:visible;"/>
		</clipPath>
		<g class="st18">
			<defs>
				<rect id="SVGID_39_" x="-56.54" y="-2277.84" width="363.5" height="4705.13"/>
			</defs>
			<clipPath id="SVGID_40_">
				<use xlink:href="#SVGID_39_"  style="overflow:visible;"/>
			</clipPath>
			<rect x="90.18" y="93.27" class="st19" width="39.35" height="14.89"/>
		</g>
	</g>
	<g>
		<defs>
			<path id="SVGID_41_" d="M96.45,99c0,2.39-1.94,4.32-4.33,4.32c-2.39,0-4.33-1.93-4.33-4.32c0-2.38,1.94-4.32,4.33-4.32
				C94.51,94.68,96.45,96.62,96.45,99"/>
		</defs>
		<clipPath id="SVGID_42_">
			<use xlink:href="#SVGID_41_"  style="overflow:visible;"/>
		</clipPath>
		<g class="st20">
			<defs>
				<rect id="SVGID_43_" x="-56.54" y="-2277.84" width="363.5" height="4705.13"/>
			</defs>
			<clipPath id="SVGID_44_">
				<use xlink:href="#SVGID_43_"  style="overflow:visible;"/>
			</clipPath>
			<rect x="82.93" y="89.83" class="st21" width="18.36" height="18.33"/>
		</g>
	</g>
	<g>
		<defs>
			<path id="SVGID_45_" d="M113.51,127.35h-0.54c-0.81-0.27-1.08-1.08-0.54-1.89l11.37-24.84c0.27-0.81,1.08-1.08,1.9-0.54
				c0.81,0.27,1.08,1.08,0.54,1.89l-11.37,24.84C114.32,127.08,113.78,127.35,113.51,127.35"/>
		</defs>
		<clipPath id="SVGID_46_">
			<use xlink:href="#SVGID_45_"  style="overflow:visible;"/>
		</clipPath>
		<g class="st22">
			<defs>
				<rect id="SVGID_47_" x="-56.54" y="-2277.84" width="363.5" height="4705.13"/>
			</defs>
			<clipPath id="SVGID_48_">
				<use xlink:href="#SVGID_47_"  style="overflow:visible;"/>
			</clipPath>
			<rect x="107.3" y="94.95" class="st23" width="24.07" height="37.24"/>
		</g>
	</g>
	<g>
		<defs>
			<path id="SVGID_49_" d="M115.94,129.78c0,2.39-1.94,4.32-4.33,4.32s-4.33-1.93-4.33-4.32c0-2.39,1.94-4.32,4.33-4.32
				S115.94,127.39,115.94,129.78"/>
		</defs>
		<clipPath id="SVGID_50_">
			<use xlink:href="#SVGID_49_"  style="overflow:visible;"/>
		</clipPath>
		<g class="st24">
			<defs>
				<rect id="SVGID_51_" x="-56.54" y="-2277.84" width="363.5" height="4705.13"/>
			</defs>
			<clipPath id="SVGID_52_">
				<use xlink:href="#SVGID_51_"  style="overflow:visible;"/>
			</clipPath>
			<rect x="102.43" y="120.61" class="st25" width="18.36" height="18.33"/>
		</g>
	</g>
	<g>
		<defs>
			<path id="SVGID_53_" d="M125.42,101.97c-0.27,0-0.54,0-0.54-0.27c-0.54-0.27-0.81-1.08-0.54-1.89l15.43-29.16
				c0.27-0.54,1.08-0.81,1.9-0.54c0.54,0.27,0.81,1.08,0.54,1.89l-15.44,29.16C126.5,101.7,125.96,101.97,125.42,101.97"/>
		</defs>
		<clipPath id="SVGID_54_">
			<use xlink:href="#SVGID_53_"  style="overflow:visible;"/>
		</clipPath>
		<g class="st26">
			<defs>
				<rect id="SVGID_55_" x="-56.54" y="-2277.84" width="363.5" height="4705.13"/>
			</defs>
			<clipPath id="SVGID_56_">
				<use xlink:href="#SVGID_55_"  style="overflow:visible;"/>
			</clipPath>
			<rect x="119.39" y="65.16" class="st27" width="27.78" height="41.66"/>
		</g>
	</g>
	<g>
		<defs>
			<path id="SVGID_57_" d="M148.44,66.87c0,2.83-2.3,5.13-5.15,5.13c-2.84,0-5.14-2.3-5.14-5.13c0-2.83,2.3-5.13,5.14-5.13
				C146.14,61.75,148.44,64.04,148.44,66.87"/>
		</defs>
		<clipPath id="SVGID_58_">
			<use xlink:href="#SVGID_57_"  style="overflow:visible;"/>
		</clipPath>
		<g class="st28">
			<defs>
				<rect id="SVGID_59_" x="-56.54" y="-2277.84" width="363.5" height="4705.13"/>
			</defs>
			<clipPath id="SVGID_60_">
				<use xlink:href="#SVGID_59_"  style="overflow:visible;"/>
			</clipPath>
			<rect x="133.3" y="56.9" class="st29" width="19.98" height="19.95"/>
		</g>
	</g>
	<g>
		<defs>
			<path id="SVGID_61_" d="M126.5,102.24c-0.54,0-0.81-0.27-1.08-0.54c-0.54-0.54-0.27-1.35,0.27-1.89l50.64-36.18
				c0.54-0.54,1.35-0.27,1.9,0.27c0.54,0.54,0.27,1.35-0.27,1.89l-50.64,36.18C127.05,102.24,126.78,102.24,126.5,102.24"/>
		</defs>
		<clipPath id="SVGID_62_">
			<use xlink:href="#SVGID_61_"  style="overflow:visible;"/>
		</clipPath>
		<g class="st30">
			<defs>
				<rect id="SVGID_63_" x="-56.54" y="-2277.84" width="363.5" height="4705.13"/>
			</defs>
			<clipPath id="SVGID_64_">
				<use xlink:href="#SVGID_63_"  style="overflow:visible;"/>
			</clipPath>
			<rect x="120.28" y="58.49" class="st31" width="63.09" height="48.59"/>
		</g>
	</g>
	<g>
		<defs>
			<path id="SVGID_65_" d="M189.33,60.93c0,3.73-3.03,6.75-6.77,6.75c-3.74,0-6.77-3.02-6.77-6.75s3.03-6.75,6.77-6.75
				C186.3,54.19,189.33,57.21,189.33,60.93"/>
		</defs>
		<clipPath id="SVGID_66_">
			<use xlink:href="#SVGID_65_"  style="overflow:visible;"/>
		</clipPath>
		<g class="st32">
			<defs>
				<rect id="SVGID_67_" x="-56.54" y="-2277.84" width="363.5" height="4705.13"/>
			</defs>
			<clipPath id="SVGID_68_">
				<use xlink:href="#SVGID_67_"  style="overflow:visible;"/>
			</clipPath>
			<rect x="170.94" y="49.34" class="st33" width="23.23" height="23.19"/>
		</g>
	</g>
	<g>
		<defs>
			<path id="SVGID_69_" d="M162.25,123.3c-0.27,0-0.54,0-0.54-0.27l-37.37-20.79c-0.54-0.27-0.81-1.08-0.54-1.89
				c0.27-0.54,1.08-0.81,1.9-0.54l37.37,20.79c0.54,0.27,0.81,1.08,0.54,1.89C163.33,123.03,162.79,123.3,162.25,123.3"/>
		</defs>
		<clipPath id="SVGID_70_">
			<use xlink:href="#SVGID_69_"  style="overflow:visible;"/>
		</clipPath>
		<g class="st34">
			<defs>
				<rect id="SVGID_71_" x="-56.54" y="-2277.84" width="363.5" height="4705.13"/>
			</defs>
			<clipPath id="SVGID_72_">
				<use xlink:href="#SVGID_71_"  style="overflow:visible;"/>
			</clipPath>
			<rect x="118.84" y="94.86" class="st35" width="49.71" height="33.29"/>
		</g>
	</g>
	<g>
		<defs>
			<path id="SVGID_73_" d="M174.98,125.19c0,3.73-3.03,6.75-6.77,6.75c-3.74,0-6.77-3.02-6.77-6.75c0-3.73,3.03-6.75,6.77-6.75
				C171.95,118.44,174.98,121.46,174.98,125.19"/>
		</defs>
		<clipPath id="SVGID_74_">
			<use xlink:href="#SVGID_73_"  style="overflow:visible;"/>
		</clipPath>
		<g class="st36">
			<defs>
				<rect id="SVGID_75_" x="-56.54" y="-2277.84" width="363.5" height="4705.13"/>
			</defs>
			<clipPath id="SVGID_76_">
				<use xlink:href="#SVGID_75_"  style="overflow:visible;"/>
			</clipPath>
			<rect x="156.59" y="113.59" class="st37" width="23.23" height="23.19"/>
		</g>
	</g>
	<g>
		<defs>
			<path id="SVGID_77_" d="M126.78,103.32c-0.81,0-1.35-0.54-1.35-1.35c0-0.81,0.54-1.35,1.08-1.35l27.08-2.7
				c0.81,0,1.35,0.54,1.35,1.08c0,0.81-0.54,1.35-1.08,1.35L126.78,103.32z"/>
		</defs>
		<clipPath id="SVGID_78_">
			<use xlink:href="#SVGID_77_"  style="overflow:visible;"/>
		</clipPath>
		<g class="st38">
			<defs>
				<rect id="SVGID_79_" x="-56.54" y="-2277.84" width="363.5" height="4705.13"/>
			</defs>
			<clipPath id="SVGID_80_">
				<use xlink:href="#SVGID_79_"  style="overflow:visible;"/>
			</clipPath>
			<rect x="120.58" y="93.07" class="st39" width="39.21" height="15.09"/>
		</g>
	</g>
	<g>
		<defs>
			<path id="SVGID_81_" d="M162.52,99c0,2.39-1.94,4.32-4.33,4.32c-2.39,0-4.33-1.93-4.33-4.32c0-2.38,1.94-4.32,4.33-4.32
				C160.58,94.68,162.52,96.62,162.52,99"/>
		</defs>
		<clipPath id="SVGID_82_">
			<use xlink:href="#SVGID_81_"  style="overflow:visible;"/>
		</clipPath>
		<g class="st40">
			<defs>
				<rect id="SVGID_83_" x="-56.54" y="-2277.84" width="363.5" height="4705.13"/>
			</defs>
			<clipPath id="SVGID_84_">
				<use xlink:href="#SVGID_83_"  style="overflow:visible;"/>
			</clipPath>
			<rect x="149.01" y="89.83" class="st41" width="18.36" height="18.33"/>
		</g>
	</g>
	<g>
		<defs>
			<path id="SVGID_85_" d="M136.8,127.35c-0.54,0-1.08-0.27-1.35-0.81l-11.37-24.84c-0.27-0.81,0-1.35,0.54-1.89
				c0.81-0.27,1.36,0,1.9,0.54l11.37,24.84c0.27,0.81,0,1.35-0.54,1.89C137.07,127.35,136.8,127.35,136.8,127.35"/>
		</defs>
		<clipPath id="SVGID_86_">
			<use xlink:href="#SVGID_85_"  style="overflow:visible;"/>
		</clipPath>
		<g class="st42">
			<defs>
				<rect id="SVGID_87_" x="-56.54" y="-2277.84" width="363.5" height="4705.13"/>
			</defs>
			<clipPath id="SVGID_88_">
				<use xlink:href="#SVGID_87_"  style="overflow:visible;"/>
			</clipPath>
			<rect x="119.12" y="94.86" class="st43" width="23.72" height="37.34"/>
		</g>
	</g>
	<g>
		<defs>
			<path id="SVGID_89_" d="M142.75,129.78c0,2.39-1.94,4.32-4.33,4.32c-2.39,0-4.33-1.93-4.33-4.32c0-2.39,1.94-4.32,4.33-4.32
				C140.81,125.46,142.75,127.39,142.75,129.78"/>
		</defs>
		<clipPath id="SVGID_90_">
			<use xlink:href="#SVGID_89_"  style="overflow:visible;"/>
		</clipPath>
		<g class="st44">
			<defs>
				<rect id="SVGID_91_" x="-56.54" y="-2277.84" width="363.5" height="4705.13"/>
			</defs>
			<clipPath id="SVGID_92_">
				<use xlink:href="#SVGID_91_"  style="overflow:visible;"/>
			</clipPath>
			<rect x="129.24" y="120.61" class="st45" width="18.36" height="18.33"/>
		</g>
	</g>
	<g>
		<defs>
			<path id="SVGID_93_" d="M75.33,87.12c0,1.04-0.85,1.89-1.9,1.89c-1.05,0-1.9-0.85-1.9-1.89c0-1.04,0.85-1.89,1.9-1.89
				C74.48,85.23,75.33,86.08,75.33,87.12"/>
		</defs>
		<clipPath id="SVGID_94_">
			<use xlink:href="#SVGID_93_"  style="overflow:visible;"/>
		</clipPath>
		<g class="st46">
			<defs>
				<rect id="SVGID_95_" x="-56.54" y="-2277.84" width="363.5" height="4705.13"/>
			</defs>
			<clipPath id="SVGID_96_">
				<use xlink:href="#SVGID_95_"  style="overflow:visible;"/>
			</clipPath>
			<rect x="66.69" y="80.39" class="st47" width="13.49" height="13.47"/>
		</g>
	</g>
	<g>
		<defs>
			<path id="SVGID_97_" d="M81.01,87.66c0,0.3-0.24,0.54-0.54,0.54c-0.3,0-0.54-0.24-0.54-0.54c0-0.3,0.24-0.54,0.54-0.54
				C80.77,87.12,81.01,87.36,81.01,87.66"/>
		</defs>
		<clipPath id="SVGID_98_">
			<use xlink:href="#SVGID_97_"  style="overflow:visible;"/>
		</clipPath>
		<g class="st48">
			<defs>
				<rect id="SVGID_99_" x="-56.54" y="-2277.84" width="363.5" height="4705.13"/>
			</defs>
			<clipPath id="SVGID_100_">
				<use xlink:href="#SVGID_99_"  style="overflow:visible;"/>
			</clipPath>
			<rect x="75.08" y="82.27" class="st49" width="10.78" height="10.77"/>
		</g>
	</g>
	<g>
		<defs>
			<path id="SVGID_101_" d="M90.22,59.58c0,0.89-0.73,1.62-1.63,1.62c-0.9,0-1.62-0.73-1.62-1.62c0-0.89,0.73-1.62,1.62-1.62
				C89.49,57.97,90.22,58.69,90.22,59.58"/>
		</defs>
		<clipPath id="SVGID_102_">
			<use xlink:href="#SVGID_101_"  style="overflow:visible;"/>
		</clipPath>
		<g class="st50">
			<defs>
				<rect id="SVGID_103_" x="-56.54" y="-2277.84" width="363.5" height="4705.13"/>
			</defs>
			<clipPath id="SVGID_104_">
				<use xlink:href="#SVGID_103_"  style="overflow:visible;"/>
			</clipPath>
			<rect x="82.12" y="53.12" class="st51" width="12.94" height="12.93"/>
		</g>
	</g>
	<g>
		<defs>
			<path id="SVGID_105_" d="M102.67,53.11c0,1.64-1.33,2.97-2.98,2.97c-1.64,0-2.98-1.33-2.98-2.97c0-1.64,1.33-2.97,2.98-2.97
				C101.34,50.13,102.67,51.46,102.67,53.11"/>
		</defs>
		<clipPath id="SVGID_106_">
			<use xlink:href="#SVGID_105_"  style="overflow:visible;"/>
		</clipPath>
		<g class="st52">
			<defs>
				<rect id="SVGID_107_" x="-56.54" y="-2277.84" width="363.5" height="4705.13"/>
			</defs>
			<clipPath id="SVGID_108_">
				<use xlink:href="#SVGID_107_"  style="overflow:visible;"/>
			</clipPath>
			<rect x="91.87" y="45.29" class="st53" width="15.65" height="15.63"/>
		</g>
	</g>
	<g>
		<defs>
			<path id="SVGID_109_" d="M120.55,60.66c0,0.3-0.24,0.54-0.54,0.54c-0.3,0-0.54-0.24-0.54-0.54c0-0.3,0.24-0.54,0.54-0.54
				C120.3,60.12,120.55,60.37,120.55,60.66"/>
		</defs>
		<clipPath id="SVGID_110_">
			<use xlink:href="#SVGID_109_"  style="overflow:visible;"/>
		</clipPath>
		<g class="st54">
			<defs>
				<rect id="SVGID_111_" x="-56.54" y="-2277.84" width="363.5" height="4705.13"/>
			</defs>
			<clipPath id="SVGID_112_">
				<use xlink:href="#SVGID_111_"  style="overflow:visible;"/>
			</clipPath>
			<rect x="114.62" y="55.28" class="st55" width="10.78" height="10.77"/>
		</g>
	</g>
	<g>
		<defs>
			<path id="SVGID_113_" d="M164.69,55.26c0,2.83-2.3,5.13-5.14,5.13c-2.84,0-5.15-2.3-5.15-5.13c0-2.83,2.3-5.13,5.15-5.13
				C162.38,50.13,164.69,52.43,164.69,55.26"/>
		</defs>
		<clipPath id="SVGID_114_">
			<use xlink:href="#SVGID_113_"  style="overflow:visible;"/>
		</clipPath>
		<g class="st56">
			<defs>
				<rect id="SVGID_115_" x="-56.54" y="-2277.84" width="363.5" height="4705.13"/>
			</defs>
			<clipPath id="SVGID_116_">
				<use xlink:href="#SVGID_115_"  style="overflow:visible;"/>
			</clipPath>
			<rect x="149.55" y="45.29" class="st57" width="19.98" height="19.95"/>
		</g>
	</g>
	<g>
		<defs>
			<path id="SVGID_117_" d="M162.52,68.22c0,0.74-0.61,1.35-1.35,1.35c-0.75,0-1.35-0.6-1.35-1.35c0-0.75,0.61-1.35,1.35-1.35
				C161.91,66.87,162.52,67.48,162.52,68.22"/>
		</defs>
		<clipPath id="SVGID_118_">
			<use xlink:href="#SVGID_117_"  style="overflow:visible;"/>
		</clipPath>
		<g class="st58">
			<defs>
				<rect id="SVGID_119_" x="-56.54" y="-2277.84" width="363.5" height="4705.13"/>
			</defs>
			<clipPath id="SVGID_120_">
				<use xlink:href="#SVGID_119_"  style="overflow:visible;"/>
			</clipPath>
			<rect x="154.97" y="62.03" class="st59" width="12.4" height="12.39"/>
		</g>
	</g>
	<g>
		<defs>
			<path id="SVGID_121_" d="M186.08,87.93c0,2.09-1.7,3.78-3.79,3.78c-2.09,0-3.79-1.69-3.79-3.78c0-2.09,1.7-3.78,3.79-3.78
				C184.38,84.15,186.08,85.84,186.08,87.93"/>
		</defs>
		<clipPath id="SVGID_122_">
			<use xlink:href="#SVGID_121_"  style="overflow:visible;"/>
		</clipPath>
		<g class="st60">
			<defs>
				<rect id="SVGID_123_" x="-56.54" y="-2277.84" width="363.5" height="4705.13"/>
			</defs>
			<clipPath id="SVGID_124_">
				<use xlink:href="#SVGID_123_"  style="overflow:visible;"/>
			</clipPath>
			<rect x="173.65" y="79.3" class="st61" width="17.27" height="17.25"/>
		</g>
	</g>
	<g>
		<defs>
			<path id="SVGID_125_" d="M165.5,88.47c0,0.3-0.24,0.54-0.54,0.54c-0.3,0-0.54-0.24-0.54-0.54c0-0.3,0.24-0.54,0.54-0.54
				C165.26,87.93,165.5,88.17,165.5,88.47"/>
		</defs>
		<clipPath id="SVGID_126_">
			<use xlink:href="#SVGID_125_"  style="overflow:visible;"/>
		</clipPath>
		<g class="st62">
			<defs>
				<rect id="SVGID_127_" x="-56.54" y="-2277.84" width="363.5" height="4705.13"/>
			</defs>
			<clipPath id="SVGID_128_">
				<use xlink:href="#SVGID_127_"  style="overflow:visible;"/>
			</clipPath>
			<rect x="159.57" y="83.08" class="st63" width="10.78" height="10.77"/>
		</g>
	</g>
	<g>
		<defs>
			<path id="SVGID_129_" d="M154.4,92.52c0,0.3-0.24,0.54-0.54,0.54s-0.54-0.24-0.54-0.54c0-0.3,0.24-0.54,0.54-0.54
				S154.4,92.22,154.4,92.52"/>
		</defs>
		<clipPath id="SVGID_130_">
			<use xlink:href="#SVGID_129_"  style="overflow:visible;"/>
		</clipPath>
		<g class="st64">
			<defs>
				<rect id="SVGID_131_" x="-56.54" y="-2277.84" width="363.5" height="4705.13"/>
			</defs>
			<clipPath id="SVGID_132_">
				<use xlink:href="#SVGID_131_"  style="overflow:visible;"/>
			</clipPath>
			<rect x="148.47" y="87.14" class="st65" width="10.78" height="10.77"/>
		</g>
	</g>
	<g>
		<defs>
			<path id="SVGID_133_" d="M60.97,93.87c0,0.45-0.36,0.81-0.81,0.81c-0.45,0-0.81-0.36-0.81-0.81c0-0.45,0.36-0.81,0.81-0.81
				C60.61,93.06,60.97,93.42,60.97,93.87"/>
		</defs>
		<clipPath id="SVGID_134_">
			<use xlink:href="#SVGID_133_"  style="overflow:visible;"/>
		</clipPath>
		<g class="st66">
			<defs>
				<rect id="SVGID_135_" x="-56.54" y="-2277.84" width="363.5" height="4705.13"/>
			</defs>
			<clipPath id="SVGID_136_">
				<use xlink:href="#SVGID_135_"  style="overflow:visible;"/>
			</clipPath>
			<rect x="54.5" y="88.21" class="st67" width="11.32" height="11.31"/>
		</g>
	</g>
	<g>
		<defs>
			<path id="SVGID_137_" d="M69.37,105.75c0,1.64-1.33,2.97-2.98,2.97c-1.65,0-2.98-1.33-2.98-2.97c0-1.64,1.33-2.97,2.98-2.97
				C68.03,102.78,69.37,104.11,69.37,105.75"/>
		</defs>
		<clipPath id="SVGID_138_">
			<use xlink:href="#SVGID_137_"  style="overflow:visible;"/>
		</clipPath>
		<g class="st68">
			<defs>
				<rect id="SVGID_139_" x="-56.54" y="-2277.84" width="363.5" height="4705.13"/>
			</defs>
			<clipPath id="SVGID_140_">
				<use xlink:href="#SVGID_139_"  style="overflow:visible;"/>
			</clipPath>
			<rect x="58.56" y="97.93" class="st69" width="15.65" height="15.63"/>
		</g>
	</g>
	<g>
		<defs>
			<path id="SVGID_141_" d="M81.12,99.05c0,0.18-0.14,0.33-0.33,0.33c-0.18,0-0.32-0.14-0.32-0.33c0-0.18,0.14-0.32,0.32-0.32
				C80.98,98.73,81.12,98.88,81.12,99.05"/>
		</defs>
		<clipPath id="SVGID_142_">
			<use xlink:href="#SVGID_141_"  style="overflow:visible;"/>
		</clipPath>
		<g class="st70">
			<defs>
				<rect id="SVGID_143_" x="-56.54" y="-2277.84" width="363.5" height="4705.13"/>
			</defs>
			<clipPath id="SVGID_144_">
				<use xlink:href="#SVGID_143_"  style="overflow:visible;"/>
			</clipPath>
			<rect x="75.62" y="93.88" class="st71" width="10.34" height="10.34"/>
		</g>
	</g>
	<g>
		<defs>
			<path id="SVGID_145_" d="M180.12,101.7c0,1.34-1.09,2.43-2.44,2.43c-1.35,0-2.44-1.09-2.44-2.43c0-1.34,1.09-2.43,2.44-2.43
				C179.03,99.27,180.12,100.36,180.12,101.7"/>
		</defs>
		<clipPath id="SVGID_146_">
			<use xlink:href="#SVGID_145_"  style="overflow:visible;"/>
		</clipPath>
		<g class="st72">
			<defs>
				<rect id="SVGID_147_" x="-56.54" y="-2277.84" width="363.5" height="4705.13"/>
			</defs>
			<clipPath id="SVGID_148_">
				<use xlink:href="#SVGID_147_"  style="overflow:visible;"/>
			</clipPath>
			<rect x="170.4" y="94.42" class="st73" width="14.57" height="14.55"/>
		</g>
	</g>
	<g>
		<defs>
			<path id="SVGID_149_" d="M171.19,111.69c0,1.19-0.97,2.16-2.17,2.16c-1.2,0-2.17-0.97-2.17-2.16c0-1.19,0.97-2.16,2.17-2.16
				C170.22,109.53,171.19,110.5,171.19,111.69"/>
		</defs>
		<clipPath id="SVGID_150_">
			<use xlink:href="#SVGID_149_"  style="overflow:visible;"/>
		</clipPath>
		<g class="st74">
			<defs>
				<rect id="SVGID_151_" x="-56.54" y="-2277.84" width="363.5" height="4705.13"/>
			</defs>
			<clipPath id="SVGID_152_">
				<use xlink:href="#SVGID_151_"  style="overflow:visible;"/>
			</clipPath>
			<rect x="162.01" y="104.68" class="st75" width="14.03" height="14.01"/>
		</g>
	</g>
	<g>
		<defs>
			<path id="SVGID_153_" d="M151.15,106.02c0,0.3-0.24,0.54-0.54,0.54c-0.3,0-0.54-0.24-0.54-0.54c0-0.3,0.24-0.54,0.54-0.54
				C150.91,105.48,151.15,105.72,151.15,106.02"/>
		</defs>
		<clipPath id="SVGID_154_">
			<use xlink:href="#SVGID_153_"  style="overflow:visible;"/>
		</clipPath>
		<g class="st76">
			<defs>
				<rect id="SVGID_155_" x="-56.54" y="-2277.84" width="363.5" height="4705.13"/>
			</defs>
			<clipPath id="SVGID_156_">
				<use xlink:href="#SVGID_155_"  style="overflow:visible;"/>
			</clipPath>
			<rect x="145.22" y="100.63" class="st77" width="10.78" height="10.77"/>
		</g>
	</g>
	<g>
		<defs>
			<path id="SVGID_157_" d="M92.93,110.34c0,1.34-1.09,2.43-2.44,2.43c-1.35,0-2.44-1.09-2.44-2.43c0-1.34,1.09-2.43,2.44-2.43
				C91.84,107.91,92.93,109,92.93,110.34"/>
		</defs>
		<clipPath id="SVGID_158_">
			<use xlink:href="#SVGID_157_"  style="overflow:visible;"/>
		</clipPath>
		<g class="st78">
			<defs>
				<rect id="SVGID_159_" x="-56.54" y="-2277.84" width="363.5" height="4705.13"/>
			</defs>
			<clipPath id="SVGID_160_">
				<use xlink:href="#SVGID_159_"  style="overflow:visible;"/>
			</clipPath>
			<rect x="83.21" y="103.06" class="st79" width="14.57" height="14.55"/>
		</g>
	</g>
	<g>
		<defs>
			<path id="SVGID_161_" d="M71.53,74.97c0,0.89-0.73,1.62-1.62,1.62c-0.9,0-1.62-0.72-1.62-1.62c0-0.89,0.73-1.62,1.62-1.62
				C70.81,73.35,71.53,74.08,71.53,74.97"/>
		</defs>
		<clipPath id="SVGID_162_">
			<use xlink:href="#SVGID_161_"  style="overflow:visible;"/>
		</clipPath>
		<g class="st80">
			<defs>
				<rect id="SVGID_163_" x="-56.54" y="-2277.84" width="363.5" height="4705.13"/>
			</defs>
			<clipPath id="SVGID_164_">
				<use xlink:href="#SVGID_163_"  style="overflow:visible;"/>
			</clipPath>
			<rect x="63.44" y="68.51" class="st81" width="12.94" height="12.93"/>
		</g>
	</g>
	<g>
		<defs>
			<path id="SVGID_165_" d="M100.51,142.2c0,1.49-1.21,2.7-2.71,2.7c-1.5,0-2.71-1.21-2.71-2.7c0-1.49,1.21-2.7,2.71-2.7
				C99.3,139.49,100.51,140.7,100.51,142.2"/>
		</defs>
		<clipPath id="SVGID_166_">
			<use xlink:href="#SVGID_165_"  style="overflow:visible;"/>
		</clipPath>
		<g class="st82">
			<defs>
				<rect id="SVGID_167_" x="-56.54" y="-2277.84" width="363.5" height="4705.13"/>
			</defs>
			<clipPath id="SVGID_168_">
				<use xlink:href="#SVGID_167_"  style="overflow:visible;"/>
			</clipPath>
			<rect x="90.25" y="134.65" class="st83" width="15.11" height="15.09"/>
		</g>
	</g>
	<g>
		<defs>
			<path id="SVGID_169_" d="M102.41,126.54c0,0.89-0.73,1.62-1.62,1.62c-0.9,0-1.63-0.73-1.63-1.62c0-0.9,0.73-1.62,1.63-1.62
				C101.68,124.92,102.41,125.64,102.41,126.54"/>
		</defs>
		<clipPath id="SVGID_170_">
			<use xlink:href="#SVGID_169_"  style="overflow:visible;"/>
		</clipPath>
		<g class="st84">
			<defs>
				<rect id="SVGID_171_" x="-56.54" y="-2277.84" width="363.5" height="4705.13"/>
			</defs>
			<clipPath id="SVGID_172_">
				<use xlink:href="#SVGID_171_"  style="overflow:visible;"/>
			</clipPath>
			<rect x="94.31" y="120.07" class="st85" width="12.94" height="12.93"/>
		</g>
	</g>
	<g>
		<defs>
			<path id="SVGID_173_" d="M140.86,143.81c0,0.6-0.49,1.08-1.08,1.08c-0.6,0-1.08-0.48-1.08-1.08c0-0.6,0.49-1.08,1.08-1.08
				C140.37,142.74,140.86,143.22,140.86,143.81"/>
		</defs>
		<clipPath id="SVGID_174_">
			<use xlink:href="#SVGID_173_"  style="overflow:visible;"/>
		</clipPath>
		<g class="st86">
			<defs>
				<rect id="SVGID_175_" x="-56.54" y="-2277.84" width="363.5" height="4705.13"/>
			</defs>
			<clipPath id="SVGID_176_">
				<use xlink:href="#SVGID_175_"  style="overflow:visible;"/>
			</clipPath>
			<rect x="133.84" y="137.89" class="st87" width="11.86" height="11.85"/>
		</g>
	</g>
	<g>
		<defs>
			<path id="SVGID_177_" d="M152.77,127.89c0,0.6-0.49,1.08-1.08,1.08c-0.6,0-1.08-0.48-1.08-1.08s0.48-1.08,1.08-1.08
				C152.29,126.81,152.77,127.29,152.77,127.89"/>
		</defs>
		<clipPath id="SVGID_178_">
			<use xlink:href="#SVGID_177_"  style="overflow:visible;"/>
		</clipPath>
		<g class="st88">
			<defs>
				<rect id="SVGID_179_" x="-56.54" y="-2277.84" width="363.5" height="4705.13"/>
			</defs>
			<clipPath id="SVGID_180_">
				<use xlink:href="#SVGID_179_"  style="overflow:visible;"/>
			</clipPath>
			<rect x="145.76" y="121.96" class="st89" width="11.86" height="11.85"/>
		</g>
	</g>
	<g>
		<defs>
			<path id="SVGID_181_" d="M159.81,137.87c0,1.34-1.09,2.43-2.44,2.43c-1.35,0-2.44-1.09-2.44-2.43c0-1.34,1.09-2.43,2.44-2.43
				C158.72,135.45,159.81,136.53,159.81,137.87"/>
		</defs>
		<clipPath id="SVGID_182_">
			<use xlink:href="#SVGID_181_"  style="overflow:visible;"/>
		</clipPath>
		<g class="st90">
			<defs>
				<rect id="SVGID_183_" x="-56.54" y="-2277.84" width="363.5" height="4705.13"/>
			</defs>
			<clipPath id="SVGID_184_">
				<use xlink:href="#SVGID_183_"  style="overflow:visible;"/>
			</clipPath>
			<rect x="150.09" y="130.6" class="st91" width="14.57" height="14.55"/>
		</g>
	</g>
	<g>
		<defs>
			<path id="SVGID_185_" d="M114.59,144.36c0,0.6-0.48,1.08-1.08,1.08c-0.6,0-1.08-0.48-1.08-1.08s0.48-1.08,1.08-1.08
				C114.11,143.27,114.59,143.76,114.59,144.36"/>
		</defs>
		<clipPath id="SVGID_186_">
			<use xlink:href="#SVGID_185_"  style="overflow:visible;"/>
		</clipPath>
		<g class="st92">
			<defs>
				<rect id="SVGID_187_" x="-56.54" y="-2277.84" width="363.5" height="4705.13"/>
			</defs>
			<clipPath id="SVGID_188_">
				<use xlink:href="#SVGID_187_"  style="overflow:visible;"/>
			</clipPath>
			<rect x="107.58" y="138.43" class="st93" width="11.86" height="11.85"/>
		</g>
	</g>
	<g>
		<defs>
			<path id="SVGID_189_" d="M174.71,81.45c0,0.6-0.49,1.08-1.08,1.08c-0.6,0-1.08-0.48-1.08-1.08c0-0.6,0.49-1.08,1.08-1.08
				C174.22,80.37,174.71,80.86,174.71,81.45"/>
		</defs>
		<clipPath id="SVGID_190_">
			<use xlink:href="#SVGID_189_"  style="overflow:visible;"/>
		</clipPath>
		<g class="st94">
			<defs>
				<rect id="SVGID_191_" x="-56.54" y="-2277.84" width="363.5" height="4705.13"/>
			</defs>
			<clipPath id="SVGID_192_">
				<use xlink:href="#SVGID_191_"  style="overflow:visible;"/>
			</clipPath>
			<rect x="167.69" y="75.52" class="st95" width="11.86" height="11.85"/>
		</g>
	</g>
	<g>
		<defs>
			<path id="SVGID_193_" d="M105.38,77.4c0,1.04-0.85,1.89-1.9,1.89s-1.9-0.85-1.9-1.89c0-1.04,0.85-1.89,1.9-1.89
				S105.38,76.36,105.38,77.4"/>
		</defs>
		<clipPath id="SVGID_194_">
			<use xlink:href="#SVGID_193_"  style="overflow:visible;"/>
		</clipPath>
		<g class="st96">
			<defs>
				<rect id="SVGID_195_" x="-56.54" y="-2277.84" width="363.5" height="4705.13"/>
			</defs>
			<clipPath id="SVGID_196_">
				<use xlink:href="#SVGID_195_"  style="overflow:visible;"/>
			</clipPath>
			<rect x="96.75" y="70.67" class="st97" width="13.49" height="13.47"/>
		</g>
	</g>
	<g>
		<defs>
			<path id="SVGID_197_" d="M141.94,53.11c0,0.74-0.61,1.35-1.35,1.35c-0.75,0-1.35-0.6-1.35-1.35c0-0.75,0.61-1.35,1.35-1.35
				C141.33,51.75,141.94,52.36,141.94,53.11"/>
		</defs>
		<clipPath id="SVGID_198_">
			<use xlink:href="#SVGID_197_"  style="overflow:visible;"/>
		</clipPath>
		<g class="st98">
			<defs>
				<rect id="SVGID_199_" x="-56.54" y="-2277.84" width="363.5" height="4705.13"/>
			</defs>
			<clipPath id="SVGID_200_">
				<use xlink:href="#SVGID_199_"  style="overflow:visible;"/>
			</clipPath>
			<rect x="134.39" y="46.91" class="st99" width="12.4" height="12.39"/>
		</g>
	</g>
	<g>
		<defs>
			<path id="SVGID_201_" d="M84.8,51.49c0,0.3-0.24,0.54-0.54,0.54c-0.3,0-0.54-0.24-0.54-0.54c0-0.3,0.24-0.54,0.54-0.54
				C84.56,50.95,84.8,51.19,84.8,51.49"/>
		</defs>
		<clipPath id="SVGID_202_">
			<use xlink:href="#SVGID_201_"  style="overflow:visible;"/>
		</clipPath>
		<g class="st100">
			<defs>
				<rect id="SVGID_203_" x="-56.54" y="-2277.84" width="363.5" height="4705.13"/>
			</defs>
			<clipPath id="SVGID_204_">
				<use xlink:href="#SVGID_203_"  style="overflow:visible;"/>
			</clipPath>
			<rect x="78.87" y="46.1" class="st101" width="10.78" height="10.77"/>
		</g>
	</g>
</g>
<g>
</g>
<g>
</g>
<g>
</g>
<g>
</g>
<g>
</g>
<g>
</g>
<g>
</g>
<g>
</g>
<g>
</g>
<g>
</g>
<g>
</g>
<g>
</g>
<g>
</g>
<g>
</g>
<g>
</g>
</svg>
