<?xml version="1.0" encoding="utf-8"?>
<!-- Generator: Adobe Illustrator 21.0.2, SVG Export Plug-In . SVG Version: 6.00 Build 0)  -->
<svg version="1.1" id="Layer_1" xmlns="http://www.w3.org/2000/svg" xmlns:xlink="http://www.w3.org/1999/xlink" x="0px" y="0px"
	 width="250px" height="200px" viewBox="0 0 250 200" style="enable-background:new 0 0 250 200;" xml:space="preserve">
<style type="text/css">
	.st0{fill:#999999;}
	.st1{fill:#160D37;}
	.st2{fill:#1E1348;}
	.st3{opacity:0.26;fill:#160D37;}
	.st4{fill:#FFFFFF;}
	.st5{fill:#B00D23;}
</style>
<g>
	<g>
		<path class="st0" d="M211.46,53.34l1.11,0.8h1.03v-1.99l3.26-0.32l3.1,2.31h5.09l0.36-0.33c-0.51-1.72-1.08-3.4-1.73-5.05
			l-3.32,0.06l-1.67-1.83l-0.32-2.94l-1.71,0.93l-0.92,3.6l-2.47-2.62l-0.1-2.48l-2.38-2.05l-0.88-0.87h-2.76l0.87,2.46l3.32,1.85
			l0.58,0.61l-0.72,0.36l0.03,1.95l-1.62,0.68l-1.38-0.3l-0.87-1.22l2.25,0.12l0.61-0.82l-4.98-3.36l-0.38-1.43l-2.02,1.83
			l-2.05-0.42l-3.12,4.06l-0.62,1.59l-2,0.18l-2.95,0.02l-1.77-0.83l-0.52-3.51l0.63-1.67l3.01-0.66l3.28,0.66l0.4-1.81l-1.39-0.33
			l0.47-2.83l3.3-0.52l2.31-3.26l2.38-0.4l2.15,0.32h0.79l-0.44-3.06l-2.61,1.05l-0.92-2.29l-1.52-0.21l-0.29-1.57l1.24-1.35
			l2.94-1.15l0.76-1.35C195.08,14.03,180.35,8,164.22,8c-13.99,0-26.94,4.54-37.47,12.21l3.22-0.02l1.43,0.79l2.7,0.58l0.21,1.06
			l4.3,0.16l-0.58-1.38l-3.82-0.11l0.9-0.85l-0.31-1.01h-3.45l3.76-2.81h3.6l1.69,2.33l2.81,0.16l1.69-1.64l1.27,0.63l-2.33,2.28
			c0,0-3.23,0.06-3.07,0.06c0.16,0,0.27,2.22,0.27,2.22l3.92-0.11l0.42-1.06l2.7-0.16l0.32-1.59l-1.59-0.27l0.53-1.43l1.22-0.37
			l4.24,0.21l-2.34,2.12l0.38,1.64l2.44,0.37l-0.16-2.97l2.33-1.22l4.13-0.48l5.99,2.65v2.28l1.91,0.48l-0.96,1.8h-2.7l-0.8,2.07
			l-6.17-1.46l4.86-2.59l-1.85-1.57l-4.19,0.53l-0.37,0.38l-0.01-0.01l-0.06,0.09l-1.21,1.25l-1.99,0.16l0.16,0.99l0.7,0.29
			l-0.03,0.33l-1.62,0.23l-0.12,0.94l-1.55,0.08l-0.28-1.87l-2.78,0.85l-5.68,3.33l0.64,2.34l1.59,1.04l3.18,0.44v3.61l1.47-0.24
			l1.35-2.82l3.38-1.07v-4.33l1.88-1.42l4.54,1.07l-0.32,2.86h1.22l3.34-1.64l0.16,3.76l2.43,1.48l-0.1,2.23l-2.33,0.79l0.16,0.74
			l2.81,1.28l-0.06,1.54l-0.81,0.07c0-0.02-0.01-0.04-0.01-0.04l-3.54-1.09l-0.15-1.14h0l1.04-0.71v-1.04l-1.11-0.28L161.29,37
			l-1.95,0.3l-0.19-0.06v0.1l-0.68,0.1l-0.55-1.11l-0.64-0.28h-1.39l-0.63,0.52v1.15l1.19,0.4l1.18,0.17l-0.26,0.12l-1.07,1.19
			l-0.47-0.59l-1.04-0.27l-2.83,2.66l0.37,0.3l-4.17,2.31l-3.92,4.08l-0.27,1.82l-3.93,2.58l-1.95,1.96l0.22,3.92l-2.7-1.26
			l0.02-2.29l-7.52,0l-3.9,1.97l-1.69,3.12l-0.67,2.47l1.1,2.4l3.07,0.37l4.88-3.26l0.43,1.62l-1.49,2.81l3.71,0.63l0.37,5.73
			l5.09,0.87l3.23-3.74l3.92,0.8l1.38,1.92l3.76-0.22l0.11-1.11l2.07,1l2.33,3.65l4.03,0.06l1.49,2.6l0.21,3.18l4.45,1.69l5.62,0.06
			l1.64,2.7l2.49,0.8l-0.48,2.23l-2.73,3.47l-0.8,7.68l-2.47,1.95l-3.65-0.11l-1.22,2.12l0.9,3.98l-3.98,5.09l-1.27,2.33l-3.79,1.82
			l-2.49,0.38l-0.1,1.06l1.75,0.5l-0.21,1.14l-1.57,1.51l0.95,1.2l1.89,0.05l-0.11,1.45l-0.5,1.43l-0.16,1.16l2.79,2.35l-0.37,1.22
			l-3.8-0.07l-3.78-3.29l-2.94-5.17l0.41-4.99l-2.23-2.97l0.9-5.03l-1.32-0.37V98.12c0,0-3.71-2.81-3.92-2.81
			c-0.21,0-1.96-0.48-1.96-0.48l-0.37-2.06l-4.82-6.04l0.48-2.17L134.9,81l3.34-2.33l-0.48-3.98l-4.87-0.37l-3.82-4.35l-2.7-0.75
			l-1.75-0.32l0.21-1.59L122.6,67v0.9l-5.57-1.39l-2.24-3.43l0.91-1.66l-3.52-5.14l-0.6-3.76h-1.43l0.47,3.65l2.44,3.76l-0.27,1.49
			l-2.07-0.32l-2.54-4.33v-5.04l-2.65-1.27v-3.63c-3.27,7.67-5.09,16.1-5.09,24.96c0,35.17,28.61,63.78,63.78,63.78
			c19.94,0,37.76-9.2,49.47-23.58h-2.1v-4.24l-2.43-3.28v-5.1l-1.86-1.85l-0.16-2.12l2.36-4.51l-4.47-7.9l0.52-5.36l-4.03-0.42
			l-1.48-1.48h-2.71L195.95,77h-4.77l-0.16,0.42h-2.65l-6.09-6.94l0.05-5.41l1.01-0.37l0.37-2.07h-1.43l-0.59-2.17l7.05-5.09v-3.6
			l3.45-1.92l1.4,0.14h2.84l2.22-1.19l7.16-0.56v3.66L211.46,53.34z M193.57,30.6l0.58-0.9l2.1-0.42l0.52,2.55l1.11,1.8l0.74,0.85
			l1.35,0.53l-1.27,1.51l-2.47,0.24h-1.85l0.21-2.2l1.54-0.32L196,33.2l-1.44-0.9l-1-0.69L193.57,30.6L193.57,30.6z M190.12,34.58
			l1.27-2.04l1.72-0.4l1.22,0.53l-0.11,1.38l-2.62,1.86h-1.48L190.12,34.58L190.12,34.58z M155.47,42.42l-1.33,0.11l0.07-0.92
			l0.59-0.74l0.8,0.63L155.47,42.42z M160.13,40.79l-0.91,0.08l-0.18,0.88l-0.7,0.44l-1.12,0.09c-0.04-0.26-0.06-0.46-0.06-0.46
			h-0.44v-0.94h1.83l0.38-0.97l0.73-0.01l0.83,0.17L160.13,40.79z"/>
	</g>
	<g>
		<path class="st1" d="M92.1,171.46l53.86-11.76c1.7-0.34,2.9-2.22,2.56-3.92l-11.25-50.96c-0.34-1.7-2.22-2.9-3.92-2.56
			l-53.86,11.76c-1.7,0.34-2.9,2.22-2.56,3.92l11.25,50.96C88.52,170.77,90.22,171.8,92.1,171.46z"/>
		<path class="st2" d="M83.86,179.98l68.69-15c1.53-0.34,2.56-1.87,2.22-3.41c-0.34-1.53-1.87-2.56-3.41-2.22l-65.79,14.49
			L62.72,70.05c-0.17-0.68-0.68-1.36-1.19-1.7L28.98,47.55c-1.36-0.85-3.07-0.51-3.92,0.85s-0.51,3.07,0.85,3.92l31.53,20.11
			l23.18,105.33C80.96,179.3,82.33,180.32,83.86,179.98z"/>
		<circle class="st1" cx="83.22" cy="177.21" r="17.37"/>
		<circle class="st3" cx="83.35" cy="177.25" r="13.12"/>
		<circle class="st4" cx="83.35" cy="177.25" r="11.25"/>
		<g>
			<path class="st2" d="M78.75,172.31c0.34,1.36,1.53,0,3.41-0.34c1.87-0.34,3.58,0.17,3.24-1.19s-2.05-2.05-3.92-1.7
				C79.77,169.58,78.41,171.11,78.75,172.31z"/>
			<path class="st2" d="M87.95,182.02c-0.34-1.36-1.53,0-3.41,0.34c-1.87,0.34-3.58-0.17-3.24,1.19c0.34,1.36,2.05,2.05,3.92,1.7
				C86.93,184.75,88.12,183.39,87.95,182.02z"/>
			<path class="st2" d="M78.58,181.68c1.36-0.34,0-1.53-0.34-3.41c-0.34-1.87,0.17-3.58-1.19-3.24c-1.36,0.34-2.05,2.05-1.7,3.92
				C75.85,180.83,77.21,182.02,78.58,181.68z"/>
			<path class="st2" d="M88.12,172.65c-1.36,0.34,0,1.53,0.34,3.41c0.34,1.87-0.17,3.58,1.19,3.24c1.36-0.34,2.05-2.05,1.7-3.92
				C90.85,173.67,89.48,172.31,88.12,172.65z"/>
			<circle class="st2" cx="83.35" cy="177.25" r="2.9"/>
		</g>
		<path class="st1" d="M78.35,112.91l41.08-9.03c1.36-0.34,2.22-1.7,1.87-3.07l-8.52-38.86c-0.34-1.36-1.7-2.22-3.07-1.87
			l-41.08,9.03c-1.36,0.34-2.22,1.7-1.87,3.07l8.69,38.69C75.62,112.23,76.98,113.08,78.35,112.91z"/>
		
			<rect x="84.1" y="65.43" transform="matrix(0.9767 -0.2144 0.2144 0.9767 -12.8251 20.9857)" class="st2" width="12.44" height="8.36"/>
		
			<rect x="99.32" y="108.02" transform="matrix(0.9767 -0.2147 0.2147 0.9767 -21.9497 25.8768)" class="st2" width="17.64" height="11.91"/>
		<g>
			<g>
				<polygon class="st4" points="117.94,117.02 117.74,116.1 111.54,114.86 113.21,114.49 117.58,115.36 117.45,114.8 114.51,114.2 
					117.19,113.6 117.05,112.98 109.78,114.6 110.88,119.55 111.79,119.35 110.95,115.59 				"/>
				<polygon class="st4" points="99.78,116.82 99.92,117.43 102.6,116.84 100.18,118.63 100.38,119.5 104.59,116.4 106.26,116.03 
					100.54,120.24 100.68,120.85 106.41,116.6 107.24,120.36 108.15,120.16 107.05,115.2 				"/>
				<polygon class="st4" points="105.54,108.39 104.63,108.59 105.47,112.35 98.47,110.92 98.7,111.93 104.68,113.13 103.02,113.5 
					98.86,112.67 98.97,113.14 101.91,113.74 99.23,114.34 99.37,114.96 106.64,113.35 				"/>
				<polygon class="st4" points="116.64,111.13 116.5,110.51 113.82,111.1 116.24,109.31 116.04,108.43 111.81,111.55 
					110.14,111.92 115.88,107.69 115.74,107.09 110.01,111.34 109.18,107.59 108.27,107.79 109.37,112.74 				"/>
			</g>
			<g>
				<polygon class="st5" points="117.05,112.98 116.64,111.13 109.37,112.74 108.27,107.79 105.54,108.39 106.64,113.35 
					99.37,114.96 99.78,116.82 107.05,115.2 108.15,120.16 110.88,119.55 109.78,114.6 				"/>
				<polygon class="st5" points="104.59,116.4 100.38,119.5 100.54,120.24 106.26,116.03 				"/>
				<polygon class="st5" points="111.54,114.86 117.74,116.1 117.58,115.36 113.21,114.49 				"/>
				<polygon class="st5" points="104.68,113.13 98.7,111.93 98.86,112.67 103.02,113.5 				"/>
				<polygon class="st5" points="111.81,111.55 116.04,108.43 115.88,107.69 110.14,111.92 				"/>
			</g>
		</g>
		<g>
			<g>
				<polygon class="st4" points="97.15,70.82 97.01,70.18 92.65,69.33 93.83,69.07 96.89,69.67 96.8,69.28 94.74,68.86 96.62,68.45 
					96.52,68.01 91.42,69.15 92.19,72.59 92.82,72.45 92.24,69.84 				"/>
				<polygon class="st4" points="84.4,70.7 84.5,71.13 86.38,70.72 84.69,71.97 84.82,72.57 87.78,70.41 88.95,70.15 84.93,73.08 
					85.03,73.51 89.05,70.54 89.63,73.16 90.27,73.02 89.51,69.57 				"/>
				<polygon class="st4" points="88.46,64.83 87.82,64.97 88.4,67.59 83.5,66.6 83.65,67.3 87.85,68.13 86.68,68.39 83.76,67.82 
					83.84,68.15 85.9,68.56 84.02,68.98 84.12,69.41 89.22,68.28 				"/>
				<polygon class="st4" points="96.24,66.72 96.14,66.29 94.26,66.71 95.96,65.46 95.82,64.85 92.85,67.02 91.68,67.28 
					95.71,64.33 95.61,63.91 91.59,66.88 91.01,64.27 90.37,64.41 91.13,67.85 				"/>
			</g>
			<g>
				<polygon class="st5" points="96.52,68.01 96.24,66.72 91.13,67.85 90.37,64.41 88.46,64.83 89.22,68.28 84.12,69.41 84.4,70.7 
					89.51,69.57 90.27,73.02 92.19,72.59 91.42,69.15 				"/>
				<polygon class="st5" points="87.78,70.41 84.82,72.57 84.93,73.08 88.95,70.15 				"/>
				<polygon class="st5" points="92.65,69.33 97.01,70.18 96.89,69.67 93.83,69.07 				"/>
				<polygon class="st5" points="87.85,68.13 83.65,67.3 83.76,67.82 86.68,68.39 				"/>
				<polygon class="st5" points="92.85,67.02 95.82,64.85 95.71,64.33 91.68,67.28 				"/>
			</g>
		</g>
	</g>
</g>
<g>
</g>
<g>
</g>
<g>
</g>
<g>
</g>
<g>
</g>
<g>
</g>
<g>
</g>
<g>
</g>
<g>
</g>
<g>
</g>
<g>
</g>
<g>
</g>
<g>
</g>
<g>
</g>
<g>
</g>
</svg>
